<?xml version="1.0" encoding="UTF-8"?>
<svg width="39px" height="47px" viewBox="0 0 39 47" version="1.1" xmlns="http://www.w3.org/2000/svg" xmlns:xlink="http://www.w3.org/1999/xlink">
    <!-- Generator: Sketch 63.1 (92452) - https://sketch.com -->
    <title>Icons universidad</title>
    <desc>Created with Sketch.</desc>
    <g id="Icons-universidad" stroke="none" stroke-width="1" fill="none" fill-rule="evenodd">
        <path d="M16.0625,42 L2.9375,42 C2.4190625,42 2,41.552 2,41 C2,40.448 2.4190625,40 2.9375,40 L16.0625,40 C16.5809375,40 17,40.448 17,41 C17,41.552 16.5809375,42 16.0625,42 Z" id="Path" fill="#008776" fill-rule="nonzero"></path>
        <path d="M34.0833333,40 L24.9166667,40 C24.40975,40 24,39.552 24,39 C24,38.448 24.40975,38 24.9166667,38 L34.0833333,38 C34.59025,38 35,38.448 35,39 C35,39.552 34.59025,40 34.0833333,40 Z" id="Path" fill="#008776" fill-rule="nonzero"></path>
        <path d="M36.1428571,43 L31.8571429,43 C31.3831429,43 31,42.552 31,42 C31,41.448 31.3831429,41 31.8571429,41 L36.1428571,41 C36.6168571,41 37,41.448 37,42 C37,42.552 36.6168571,43 36.1428571,43 Z" id="Path" fill="#008776" fill-rule="nonzero"></path>
        <path d="M25.0714286,34 L13.9285714,34 C13.4150714,34 13,33.552 13,33 L13,29 C13,28.448 13.4150714,28 13.9285714,28 L25.0714286,28 C25.5849286,28 26,28.448 26,29 L26,33 C26,33.552 25.5849286,34 25.0714286,34 Z M14.8571429,32 L24.1428571,32 L24.1428571,30 L14.8571429,30 L14.8571429,32 Z" id="Shape" fill="#008776" fill-rule="nonzero"></path>
        <path d="M12.9375,42 C12.4190625,42 12,41.5927273 12,41.0909091 L12,32.9090909 C12,32.4072727 12.4190625,32 12.9375,32 L26.0625,32 C26.5809375,32 27,32.4072727 27,32.9090909 L27,39.2727273 C27,39.7745455 26.5809375,40.1818182 26.0625,40.1818182 C25.5440625,40.1818182 25.125,39.7745455 25.125,39.2727273 L25.125,33.8181818 L13.875,33.8181818 L13.875,41.0909091 C13.875,41.5927273 13.4559375,42 12.9375,42 Z" id="Path" fill="#008776" fill-rule="nonzero"></path>
        <g id="Group" transform="translate(10.000000, 4.000000)" fill="#008776" fill-rule="nonzero">
            <circle id="Oval" cx="16.0300803" cy="9.62228017" r="1"></circle>
            <circle id="Oval" cx="15.7200403" cy="15.0852403" r="1"></circle>
            <circle id="Oval" cx="16.5232003" cy="16.0944803" r="1"></circle>
            <circle id="Oval" cx="14.9270003" cy="19.2326003" r="1"></circle>
            <circle id="Oval" cx="14.8239603" cy="20.6254804" r="1"></circle>
            <path d="M18.2702803,5.3948801 C18.4901603,5.4059201 18.6769203,5.2375601 18.6888803,5.01676009 C18.6980803,4.79596009 18.7818003,4.61012008 18.5610003,4.59908008 C18.3457203,4.58804008 18.4000003,4.75272009 18.4000003,4.96708009 C18.4000003,4.96616009 18.4000003,4.96524009 18.4000003,4.96524009 C18.4000003,2.45180004 16.7559603,0.277840005 14.2784003,0.0110400002 C13.7586002,-0.0450800008 13.3482802,0.107640002 13.2066002,0.239200004 C12.9186402,0.501400009 12.8386002,0.896080016 13.0952802,1.23464002 L15.6924403,4.74444009 C15.9748803,5.11336009 15.9666003,5.6248801 15.6206803,5.93952011 L13.0888402,8.24596015 C12.7429202,8.56152016 12.7144002,9.09512016 13.0290402,9.44104017 L14.7678403,11.3463602 C14.9242403,11.5184002 14.9095203,11.7852002 14.7384003,11.9416002 L12.8321602,13.6794802 C12.6831202,13.8156403 12.5929602,13.9932003 12.5644402,14.1781203 C12.7328002,12.5819202 12.8082402,11.2838002 12.8082402,9.65448018 C12.8064002,7.55044014 12.6711602,4.60000008 12.3215602,3.68000007 L10.5248002,3.68000007 C10.9590402,4.60000008 11.0933602,7.36368013 11.0933602,9.38124017 C11.0933602,13.6196802 10.5680402,17.9676003 9.34168017,22.0514804 C8.11440015,17.9676003 7.59000014,13.6988002 7.59000014,9.45852017 C7.58908014,7.44280014 7.72432014,4.60000008 8.15672015,3.68000007 L6.35996012,3.68000007 C6.04256011,4.60000008 5.90272011,7.15392013 5.87972011,9.06200016 C5.85304011,8.87708016 5.7628801,8.54220015 5.6138401,8.40604015 L3.08844006,6.02048011 C2.74344005,5.7049201 2.75172005,5.15476009 3.03324006,4.78584009 L5.6616801,1.25488002 C5.92020011,0.917240017 5.90272011,0.512440009 5.6166001,0.250240005 C5.4721601,0.118680002 5.2476801,-0.0377200007 4.72880009,0.0174800003 C2.25032004,0.284280005 -4.02455846e-16,2.45272004 0.920000017,4.96524009 C0.920000017,4.96524009 0.920000017,4.96616009 0.920000017,4.96708009 C0.920000017,4.75180009 0.661480012,4.58804008 0.442520008,4.59908008 C0.224480004,4.60920008 0.0239200004,4.79596009 0.0358800007,5.01676009 C0.0460000008,5.2375601 0.218040004,5.4059201 0.438840008,5.3948801 C0.659640012,5.3838401 0.821560015,5.19800009 0.810520015,4.97812009 C0.869400016,5.5062001 0.978880018,5.89076011 1.10860002,6.17688011 C1.00188002,6.00944011 0.783840014,5.94504011 0.599840011,6.03336011 C0.400200007,6.12996011 0.316480006,6.36824012 0.413080007,6.56604012 C0.509680009,6.76476012 0.746120014,6.84664012 0.944840017,6.75096012 C1.12700002,6.66264012 1.20980002,6.45380012 1.14724002,6.26612011 C1.31652002,6.60100012 1.50604003,6.78592012 1.63668003,6.90552013 L1.86208003,7.11252013 C1.70384003,7.02420013 1.49960003,7.05272013 1.37264002,7.19256013 C1.22360002,7.35540013 1.23648002,7.60656014 1.39840003,7.75468014 C1.56216003,7.90372014 1.81332003,7.89084014 1.96236004,7.72892014 C2.08932004,7.58908014 2.09760004,7.38300013 1.99548004,7.23396013 L2.92468005,8.08312015 C2.76092005,7.94144014 2.51528005,7.95432014 2.36900004,8.11532015 C2.22180004,8.27816015 2.23284004,8.52932015 2.39660004,8.67836016 C2.55944005,8.82648016 2.80968005,8.81452016 2.95872005,8.65168016 C3.10408006,8.49068015 3.09396006,8.24504015 2.93940005,8.09600015 L3.53648006,8.64156016 C3.70944007,8.79888016 3.72140007,9.06568016 3.56408006,9.23772017 L2.17856004,10.7575602 C2.25124004,10.6030002 2.22088004,10.4134802 2.08840004,10.2929602 C1.92464003,10.1448402 1.67348003,10.1568002 1.52536003,10.3196402 C1.37632002,10.4824802 1.38920003,10.7345602 1.55020003,10.8826802 C1.68452003,11.0032002 1.87312003,11.0160802 2.02032004,10.9296002 L1.82528003,11.1430402 C1.51064003,11.4880402 1.53548003,12.0234802 1.88048003,12.3381202 L2.31564004,12.7346402 C2.15372004,12.6067602 1.91820003,12.6224002 1.77652003,12.7778802 C1.62748003,12.9416402 1.64036003,13.1928002 1.80136003,13.3409202 C1.96420004,13.4899602 2.21628004,13.4770802 2.36440004,13.3142402 C2.50608005,13.1587602 2.49872005,12.9223202 2.35796004,12.7723602 L3.16848006,13.5120402 C3.00564005,13.3768002 2.76460005,13.3915202 2.62016005,13.5488402 C2.47112004,13.7126002 2.48308005,13.9637603 2.64592005,14.1118803 C2.80876005,14.2609203 3.05900006,14.2480403 3.20804006,14.0861203 C3.35156006,13.9278803 3.34512006,13.6850002 3.19332006,13.5350402 L3.78764007,14.0760003 C3.95876007,14.2324003 3.97164007,14.4992003 3.81340007,14.6703203 L2.28344004,16.5885203 C1.99272004,16.9537603 2.05160004,17.4855203 2.41592004,17.7771603 L3.03784006,18.2206003 C2.86120005,18.1083603 2.62476005,18.1525203 2.50148005,18.3254803 C2.37360004,18.5058003 2.41592004,18.7542003 2.59532005,18.8820803 C2.77564005,19.0090403 3.02496005,18.9676403 3.15192006,18.7873203 C3.27336006,18.6134403 3.23840006,18.3760803 3.07372006,18.2454403 L4.69844009,19.4037204 C4.88152009,19.5481604 4.91280009,19.8131204 4.76928009,19.9962004 L3.78672007,21.4654404 C3.51348006,21.8454004 3.60180007,22.3734804 3.98176007,22.6458004 C4.36172008,22.9181204 4.88980009,22.8298004 5.16212009,22.4507604 L6.88252012,20.0412804 C7.02236013,19.8628004 7.07940013,19.3798004 7.05732013,19.1709603 C7.41428013,20.5500404 7.86324014,21.7874404 8.41892015,22.9981604 L10.2580002,22.9981604 C11.5036802,20.5776404 12.2139202,17.1451203 12.5543202,13.9840003 C12.5396002,14.2048003 12.6113602,14.5645203 12.7714402,14.7420803 L14.2949603,16.5903603 C14.4403203,16.7716003 14.4108803,17.0696803 14.2287203,17.2159603 L11.9517202,18.8370003 C11.5846402,19.1258803 11.5202402,19.6659204 11.8091202,20.0339204 L13.5276802,22.4480004 C13.7990803,22.8270404 14.3290003,22.9162804 14.7071203,22.6439604 C15.0880003,22.3716404 15.1754003,21.8444804 14.9030803,21.4654404 L13.9205203,19.9962004 C13.7760802,19.8131204 13.8092003,19.5490804 13.9922803,19.4046404 L15.6151603,18.2463603 C15.4523203,18.3779203 15.4164403,18.6143603 15.5388003,18.7882403 C15.6666803,18.9676403 15.9141603,19.0099603 16.0944803,18.8830003 C16.2757203,18.7551203 16.3171203,18.5067203 16.1901603,18.3264003 C16.0650403,18.1534403 15.8304403,18.1092803 15.6519603,18.2215203 L16.2748003,17.7780803 C16.6400403,17.4864403 16.6998403,16.9537603 16.4063603,16.5894403 L14.8773203,14.6712403 C14.7200003,14.4992003 14.7328803,14.2333203 14.9040003,14.0769203 L15.4964803,13.5359602 C15.3474403,13.6859202 15.3391603,13.9288003 15.4817603,14.0870403 C15.6308003,14.2489603 15.8828803,14.2618403 16.0457203,14.1128003 C16.2094803,13.9646803 16.2186803,13.7126002 16.0714803,13.5497602 C15.9261203,13.3924402 15.6850803,13.3768002 15.5213203,13.5129602 L16.3346003,12.7723602 C16.1910803,12.9223202 16.1846403,13.1596802 16.3263203,13.3151602 C16.4744403,13.4780002 16.7274403,13.4899602 16.8902803,13.3418402 C17.0522003,13.1937202 17.0632403,12.9416402 16.9160403,12.7788002 C16.7734403,12.6233202 16.5360803,12.6076802 16.3741603,12.7364802 L16.8093203,12.3390402 C17.1552403,12.0244002 17.1782403,11.4889602 16.8645203,11.1439602 L16.6704003,10.9305202 C16.8166803,11.0170002 17.0080403,11.0041202 17.1414403,10.8836002 C17.3033603,10.7345602 17.3144003,10.4834002 17.1672003,10.3205602 C17.0181603,10.1577202 16.7660803,10.1457602 16.6032403,10.2938802 C16.4707603,10.4153202 16.4394803,10.6039202 16.5121603,10.7575602 L15.1266403,9.23864017 C14.9702403,9.06660016 14.9822003,8.79980016 15.1542403,8.64248016 L15.7494803,8.09784015 C15.5958403,8.24780015 15.5866403,8.49252015 15.7320003,8.65352016 C15.8792003,8.81636016 16.1331203,8.82832016 16.2950403,8.68020016 C16.4578803,8.53116015 16.4689203,8.28000015 16.3208003,8.11716015 C16.1745203,7.95708014 15.9279603,7.94420014 15.7651203,8.08312015 L16.6943203,7.23580013 C16.5931203,7.38484013 16.6004803,7.59092014 16.7274403,7.73076014 C16.8764803,7.89268014 17.1276403,7.90464014 17.2895603,7.75652014 C17.4533203,7.60840014 17.4643603,7.35632013 17.3153203,7.19440013 C17.1874403,7.05456013 16.9850403,7.02604013 16.8258803,7.11436013 L17.0531203,6.90736013 C17.1846803,6.78776012 17.3723603,6.60192012 17.5407203,6.26796011 C17.4790803,6.45564012 17.5609603,6.66448012 17.7431203,6.75280012 C17.9427603,6.84848012 18.1801203,6.76752012 18.2767203,6.56788012 C18.3724003,6.37008012 18.2896003,6.13180011 18.0908803,6.03520011 C17.9078003,5.94596011 17.6916003,6.01128011 17.5830403,6.17872011 C17.7155203,5.89260011 17.8286803,5.5080401 17.8866403,4.97996009 C17.8811203,5.19800009 18.0504003,5.3838401 18.2702803,5.3948801 Z M15.3805603,1.33952002 C15.2425603,1.46556003 15.0272803,1.45636003 14.9012403,1.31744002 C14.7742803,1.17944002 14.7834803,0.964160017 14.9233203,0.838120015 C15.0622403,0.712080013 15.2766003,0.722200013 15.4026403,0.860200016 C15.5296003,0.999120018 15.5185603,1.21256002 15.3805603,1.33952002 Z M3.29176006,0.859280016 C3.41780006,0.721280013 3.63308007,0.711160013 3.77108007,0.837200015 C3.91000007,0.964160017 3.91920007,1.17852002 3.79408007,1.31652002 C3.66620007,1.45544003 3.45092006,1.46556003 3.31476006,1.33860002 C3.17400006,1.21256002 3.16480006,0.999120018 3.29176006,0.859280016 Z M3.92932007,11.3482002 L5.6699601,9.44288017 C5.7831201,9.31776017 5.85304011,9.16688017 5.87788011,9.01048016 C5.87788011,9.12088017 5.87604011,9.22944017 5.87604011,9.33984017 C5.87604011,10.9332802 5.94688011,12.5120002 6.10880011,14.0741603 C6.06740011,13.9278803 5.98552011,13.7908003 5.86500011,13.6813202 L3.95784007,11.9434402 C3.78396007,11.7870402 3.77292007,11.5202402 3.92932007,11.3482002 Z M6.73992012,18.8554003 L4.46292008,17.2509203 C4.28076008,17.1037203 4.25040008,16.8396803 4.39668008,16.6575203 L5.91928011,14.8745603 C6.05268011,14.7282803 6.12536011,14.5488803 6.13640011,14.3648803 C6.31580011,15.9886803 6.59364012,17.5950003 6.99200013,19.1838403 C6.93864013,19.0587203 6.85308012,18.9455603 6.73992012,18.8554003 Z" id="Shape"></path>
            <circle id="Oval" cx="18.2344003" cy="3.48312006" r="1"></circle>
            <circle id="Oval" cx="17.7468003" cy="2.08472004" r="1"></circle>
            <circle id="Oval" cx="2.66432005" cy="9.62228017" r="1"></circle>
            <circle id="Oval" cx="2.97252005" cy="15.0861603" r="1"></circle>
            <circle id="Oval" cx="2.17028004" cy="16.0944803" r="1"></circle>
            <circle id="Oval" cx="3.76832007" cy="19.2326003" r="1"></circle>
            <circle id="Oval" cx="3.87044007" cy="20.6254804" r="1"></circle>
            <circle id="Oval" cx="0.459080008" cy="3.48312006" r="1"></circle>
            <circle id="Oval" cx="0.946680017" cy="2.08472004" r="1"></circle>
        </g>
        <g id="puntos_6_" transform="translate(10.000000, 45.000000)" fill="#008776" fill-rule="nonzero">
            <circle id="Oval" cx="11" cy="1" r="1"></circle>
            <circle id="Oval" cx="16" cy="1" r="1"></circle>
            <circle id="Oval" cx="21" cy="1" r="1"></circle>
            <circle id="Oval" cx="1" cy="1" r="1"></circle>
            <circle id="Oval" cx="6" cy="1" r="1"></circle>
        </g>
    </g>
</svg>