<?xml version="1.0" encoding="UTF-8"?>
<svg width="44px" height="40px" viewBox="0 0 44 40" version="1.1" xmlns="http://www.w3.org/2000/svg" xmlns:xlink="http://www.w3.org/1999/xlink">
    <!-- Generator: Sketch 63.1 (92452) - https://sketch.com -->
    <title>Capa_1</title>
    <desc>Created with Sketch.</desc>
    <g id="Landing" stroke="none" stroke-width="1" fill="none" fill-rule="evenodd">
        <g id="Apoyos-Financieros" transform="translate(-280.000000, -3344.000000)" fill="#008776" fill-rule="nonzero">
            <g id="Group-4" transform="translate(280.000000, 3342.000000)">
                <g id="Capa_1" transform="translate(0.000000, 2.000000)">
                    <g id="puntos_73_" transform="translate(11.000000, 38.000000)">
                        <circle id="Oval" cx="11" cy="1" r="1"></circle>
                        <circle id="Oval" cx="16" cy="1" r="1"></circle>
                        <circle id="Oval" cx="21" cy="1" r="1"></circle>
                        <circle id="Oval" cx="1" cy="1" r="1"></circle>
                        <circle id="Oval" cx="6" cy="1" r="1"></circle>
                    </g>
                    <g id="Group">
                        <path d="M24.281,21.088 C24.025,21.088 23.769,20.99 23.574,20.795 L18.741,15.962 C18.35,15.571 18.35,14.939 18.741,14.548 C19.132,14.157 19.764,14.157 20.155,14.548 L24.281,18.674 L42.21,0.747 C42.601,0.356 43.233,0.356 43.624,0.747 C44.015,1.138 44.015,1.77 43.624,2.161 L24.988,20.795 C24.792,20.991 24.537,21.088 24.281,21.088 Z" id="Path"></path>
                        <path d="M23.202,15.704 C22.946,15.704 22.69,15.606 22.495,15.411 C22.104,15.021 22.104,14.388 22.495,13.997 L32.394,4.096 C32.785,3.705 33.417,3.705 33.808,4.096 C34.199,4.486 34.199,5.119 33.808,5.51 L23.909,15.411 C23.714,15.606 23.458,15.704 23.202,15.704 Z" id="Path"></path>
                        <path d="M15.35,23.215 C15.085,23.215 14.83,23.11 14.643,22.922 L10.39,18.669 C9.999,18.278 9.999,17.646 10.39,17.255 C10.781,16.864 11.413,16.864 11.804,17.255 L15.35,20.801 L17.994,18.157 C18.385,17.766 19.017,17.766 19.408,18.157 C19.799,18.547 19.799,19.18 19.408,19.571 L16.057,22.922 C15.87,23.109 15.615,23.215 15.35,23.215 Z" id="Path"></path>
                        <path d="M31,31 L1,31 C0.448,31 0,30.552 0,30 L0,14 C0,13.448 0.448,13 1,13 L10,13 C10.552,13 11,13.448 11,14 C11,14.552 10.552,15 10,15 L2,15 L2,29 L30,29 L30,25 C30,24.448 30.448,24 31,24 C31.552,24 32,24.448 32,25 L32,30 C32,30.552 31.552,31 31,31 Z" id="Path"></path>
                    </g>
                </g>
            </g>
        </g>
    </g>
</svg>