<?xml version="1.0" encoding="UTF-8"?>
<svg width="39px" height="47px" viewBox="0 0 39 47" version="1.1" xmlns="http://www.w3.org/2000/svg" xmlns:xlink="http://www.w3.org/1999/xlink">
    <!-- Generator: Sketch 63.1 (92452) - https://sketch.com -->
    <title>Icons icetex</title>
    <desc>Created with Sketch.</desc>
    <g id="Icons-icetex" stroke="none" stroke-width="1" fill="none" fill-rule="evenodd">
        <path d="M33,40 L9,40 C8.447,40 8,39.552 8,39 L8,32 C8,31.448 8.447,31 9,31 C9.553,31 10,31.448 10,32 L10,38 L32,38 L32,18 L26,18 C25.447,18 25,17.552 25,17 L25,10 L10,10 L10,13 C10,13.552 9.553,14 9,14 C8.447,14 8,13.552 8,13 L8,9 C8,8.448 8.447,8 9,8 L26,8 C26.553,8 27,8.448 27,9 L27,16 L33,16 C33.553,16 34,16.448 34,17 L34,39 C34,39.552 33.553,40 33,40 Z" id="Path" fill="#008776" fill-rule="nonzero"></path>
        <path d="M32.637,18.031 C32.356,18.031 32.075,17.912 31.878,17.682 L25.316,10.026 C24.956,9.607 25.004,8.975 25.424,8.616 C25.843,8.258 26.474,8.305 26.833,8.724 L33.395,16.38 C33.755,16.799 33.707,17.431 33.287,17.79 C33.099,17.952 32.867,18.031 32.637,18.031 Z" id="Path" fill="#008776" fill-rule="nonzero"></path>
        <path d="M16.096,34.438 C15.84,34.438 15.584,34.34 15.389,34.145 L2.264,21.02 C1.873,20.629 1.873,19.997 2.264,19.606 L6.639,15.231 C7.03,14.84 7.662,14.84 8.053,15.231 L21.178,28.356 C21.569,28.747 21.569,29.379 21.178,29.77 C20.787,30.161 20.155,30.161 19.764,29.77 L7.346,17.352 L4.385,20.313 L16.803,32.73 C17.194,33.121 17.194,33.753 16.803,34.144 C16.607,34.34 16.352,34.438 16.096,34.438 Z" id="Path" fill="#008776" fill-rule="nonzero"></path>
        <path d="M6.252,24.594 C5.996,24.594 5.74,24.496 5.545,24.301 C5.154,23.91 5.154,23.278 5.545,22.887 L9.92,18.512 C10.311,18.121 10.943,18.121 11.334,18.512 C11.725,18.903 11.725,19.535 11.334,19.926 L6.959,24.301 C6.764,24.496 6.508,24.594 6.252,24.594 Z" id="Path" fill="#008776" fill-rule="nonzero"></path>
        <path d="M22.658,36.625 C22.553,36.625 22.445,36.608 22.342,36.574 L15.78,34.386 C15.257,34.211 14.973,33.645 15.148,33.121 C15.323,32.598 15.884,32.313 16.413,32.489 L21.078,34.044 L19.523,29.379 C19.348,28.855 19.631,28.289 20.155,28.114 C20.683,27.938 21.245,28.223 21.42,28.746 L23.608,35.308 C23.728,35.667 23.634,36.064 23.367,36.331 C23.175,36.522 22.919,36.625 22.658,36.625 Z" id="Path" fill="#008776" fill-rule="nonzero"></path>
        <g id="puntos_98_" transform="translate(10.000000, 45.000000)" fill="#008776" fill-rule="nonzero">
            <circle id="Oval" cx="11" cy="1" r="1"></circle>
            <circle id="Oval" cx="16" cy="1" r="1"></circle>
            <circle id="Oval" cx="21" cy="1" r="1"></circle>
            <circle id="Oval" cx="1" cy="1" r="1"></circle>
            <circle id="Oval" cx="6" cy="1" r="1"></circle>
        </g>
    </g>
</svg>