<?xml version="1.0" encoding="UTF-8"?>
<svg width="38px" height="41px" viewBox="0 0 38 41" version="1.1" xmlns="http://www.w3.org/2000/svg" xmlns:xlink="http://www.w3.org/1999/xlink">
    <!-- Generator: Sketch 63.1 (92452) - https://sketch.com -->
    <title>Capa_1</title>
    <desc>Created with Sketch.</desc>
    <g id="Landing" stroke="none" stroke-width="1" fill="none" fill-rule="evenodd">
        <g id="Apoyos-Financieros" transform="translate(-689.000000, -3349.000000)">
            <g id="Capa_1" transform="translate(680.000000, 3342.000000)">
                <g id="Group" transform="translate(15.000000, 7.000000)" fill="#008776" fill-rule="nonzero">
                    <path d="M7.348,26.932 C7.22,26.932 7.091,26.907 6.97,26.858 C6.725,26.758 6.529,26.565 6.426,26.32 L0.147,11.386 C-0.067,10.877 0.172,10.291 0.681,10.076 L23.46,0.495 C23.704,0.391 23.98,0.391 24.226,0.491 C24.471,0.591 24.667,0.784 24.77,1.029 L31.051,15.963 C31.154,16.208 31.155,16.483 31.055,16.728 C30.955,16.974 30.761,17.169 30.517,17.272 L7.736,26.853 C7.611,26.906 7.479,26.932 7.348,26.932 Z M2.378,11.532 L7.882,24.622 L28.82,15.816 L23.314,2.726 L2.378,11.532 Z" id="Shape"></path>
                    <path d="M16.379,16.532 C16.284,16.532 16.19,16.519 16.095,16.491 L0.784,11.956 C0.255,11.799 -0.047,11.243 0.109,10.713 C0.266,10.185 0.822,9.882 1.352,10.038 L15.877,14.34 L22.963,0.948 C23.222,0.461 23.824,0.273 24.315,0.532 C24.803,0.79 24.99,1.395 24.731,1.884 L17.263,16 C17.086,16.334 16.742,16.532 16.379,16.532 Z" id="Path"></path>
                </g>
                <rect id="Rectangle" fill="#008776" fill-rule="nonzero" x="9" y="38" width="15" height="2"></rect>
                <g id="puntos_89_" transform="translate(14.000000, 46.000000)" fill="#008776" fill-rule="nonzero">
                    <circle id="Oval" cx="11" cy="1" r="1"></circle>
                    <circle id="Oval" cx="16" cy="1" r="1"></circle>
                    <circle id="Oval" cx="21" cy="1" r="1"></circle>
                    <circle id="Oval" cx="1" cy="1" r="1"></circle>
                    <circle id="Oval" cx="6" cy="1" r="1"></circle>
                </g>
                <g id="_x3C_Sector_x3E__6_">
                    <rect id="Rectangle" x="0" y="0" width="50" height="50"></rect>
                </g>
            </g>
        </g>
    </g>
</svg>