<?xml version="1.0" encoding="UTF-8"?>
<svg width="28px" height="28px" viewBox="0 0 28 28" version="1.1" xmlns="http://www.w3.org/2000/svg" xmlns:xlink="http://www.w3.org/1999/xlink">
    <!-- Generator: Sketch 63.1 (92452) - https://sketch.com -->
    <title>whatsapp</title>
    <desc>Created with Sketch.</desc>
    <g id="Landing" stroke="none" stroke-width="1" fill="none" fill-rule="evenodd">
        <g id="Apoyos-Financieros" transform="translate(-154.000000, -3283.000000)" fill="#000000" fill-rule="nonzero">
            <g id="whatsapp" transform="translate(154.000000, 3283.000000)">
                <path d="M23.9204403,4.06909177 C21.2883144,1.44648438 17.7877998,0.00153808375 14.0585541,0 C6.37407896,0 0.120032371,6.22395021 0.116941387,13.873706 C0.115911089,16.3190918 0.757800856,18.7062011 1.97787231,20.8103027 L0,28 L7.39066204,26.0705567 C9.42709085,27.1760986 11.7197261,27.7586914 14.0528873,27.759375 L14.0587258,27.759375 C21.7423424,27.759375 27.9970758,21.5349121 28,13.8848145 C28.0015405,10.1773438 26.5527379,6.69152833 23.9204403,4.06909177 Z M14.0585541,25.4161865 L14.0537459,25.4161865 C11.9745588,25.415332 9.93538239,24.8592285 8.15601858,23.8087158 L7.73307193,23.5586914 L3.34734019,24.7037109 L4.51795625,20.448169 L4.24234543,20.0118652 C3.08237609,18.1757324 2.46985043,16.0535156 2.47087943,13.8745605 C2.47328483,7.51628417 7.67159615,2.34335938 14.0631905,2.34335938 C17.1582739,2.34438479 20.0677278,3.54545896 22.2554421,5.72526854 C24.4431563,7.90507813 25.6472578,10.8024902 25.6462281,13.88396 C25.6434799,20.242749 20.4455121,25.4161865 14.0585541,25.4161865 L14.0585541,25.4161865 Z M20.4146024,16.7791504 C20.066354,16.6055176 18.3536176,15.7670898 18.0342182,15.6512207 C17.7151622,15.5355224 17.4826532,15.4779297 17.2506593,15.8248535 C17.018322,16.1717773 16.3508459,16.9527832 16.1475293,17.1840088 C15.9442127,17.4154053 15.7412395,17.444458 15.3928194,17.2708252 C15.0443993,17.0973633 13.9220366,16.7311279 12.5913774,15.5500488 C11.5559051,14.6307861 10.8568326,13.4955078 10.6535159,13.148584 C10.4505427,12.8013183 10.6517988,12.6317871 10.8063468,12.4410645 C11.1834442,11.9750244 11.5610567,11.4864258 11.6771395,11.2552002 C11.7933941,11.0238037 11.7351809,10.8212891 11.6479471,10.6478271 C11.5610567,10.4743652 10.8643882,8.76794433 10.5741812,8.07358396 C10.2911865,7.39785156 10.0042422,7.48911135 9.79027891,7.47851563 C9.58730575,7.46843261 9.35496845,7.46638183 9.1226311,7.46638183 C8.8904655,7.46638183 8.51302471,7.55302734 8.1936253,7.90029297 C7.87439759,8.24738771 6.97458419,9.08598635 6.97458419,10.7924072 C6.97458419,12.4988281 8.2228177,14.1473145 8.39694191,14.3787109 C8.57106609,14.6101074 10.8533981,18.1118164 14.3477308,19.6133301 C15.1788561,19.9708496 15.8276147,20.1839599 16.3336739,20.34375 C17.1682336,20.6076172 17.9274083,20.5703613 18.5277418,20.4811523 C19.1971068,20.3815185 20.5885549,19.6423828 20.8791053,18.832666 C21.1693124,18.0227783 21.1693124,17.3287598 21.0820785,17.1840088 C20.9951881,17.0394287 20.7628508,16.9527832 20.4146024,16.7791504 L20.4146024,16.7791504 Z" id="Shape"></path>
            </g>
        </g>
    </g>
</svg>