<?xml version="1.0" encoding="UTF-8"?>
<svg width="233px" height="67px" viewBox="0 0 233 67" version="1.1" xmlns="http://www.w3.org/2000/svg" xmlns:xlink="http://www.w3.org/1999/xlink">
    <!-- Generator: Sketch 63.1 (92452) - https://sketch.com -->
    <title>Logo U Copy 2</title>
    <desc>Created with Sketch.</desc>
    <g id="Landing" stroke="none" stroke-width="1" fill="none" fill-rule="evenodd">
        <g id="Apoyos-Financieros" transform="translate(-130.000000, -47.000000)" fill="#FFFFFF" fill-rule="nonzero">
            <g id="Logo-U-Copy-2" transform="translate(130.000000, 47.000000)">
                <g id="Logo-facultad-ueb-horizontal-a-dos-lineas">
                    <g id="Logo-ueb-horizontal-a-dos-lineas">
                        <path d="M24.1074531,66.6266266 C22.5581071,62.8777734 21.267198,59.0282594 20.2436899,55.1048155 C20.2969776,55.7070288 20.1178339,56.3068384 19.7426638,56.782352 L14.8570267,63.5854493 C14.0854788,64.6583441 12.5859252,64.9057378 11.5076799,64.1380186 C10.4294345,63.3702994 10.180807,61.8781869 10.9523548,60.805292 L13.7421592,56.6572973 C14.1489289,56.1387372 14.0566326,55.3903209 13.5359288,54.9850065 L8.95331123,51.732747 C9.41681927,52.1216974 9.48940766,52.8052413 9.11783232,53.2819948 C8.74625698,53.7587482 8.06285426,53.8589157 7.56890462,53.5090237 C7.07495498,53.1591317 6.9463783,52.4837941 7.27748644,51.9783755 C7.60859458,51.4729569 8.28146355,51.3174619 8.80253948,51.625947 L7.06349811,50.3915572 C6.56456215,49.9971241 6.24430573,49.4209933 6.17369147,48.7908242 C6.10307721,48.1606551 6.28793603,47.5284834 6.68730679,47.0343862 L11.0286896,41.6245148 C11.2441365,41.3919512 11.3572709,41.0833739 11.3429357,40.7673987 C11.3286006,40.4514236 11.1879844,40.1542445 10.9523548,39.9419426 L9.31031341,38.4540864 C9.71953302,38.8982199 9.70597474,39.5838823 9.27951407,40.0116546 C8.8530534,40.439427 8.16410306,40.4584341 7.71447673,40.0548315 C7.26485041,39.651229 7.21313135,38.9673676 7.59699039,38.5013543 C7.98084943,38.035341 8.66489944,37.9515387 9.15089602,38.310987 L6.91926332,36.2903897 C7.32322909,36.7434022 7.29422339,37.4333423 6.85364543,37.851201 C6.41306746,38.2690596 5.71909329,38.2648174 5.28370816,37.841604 C4.84832303,37.4183907 4.82783867,36.728148 5.2373676,36.2801083 C5.62780993,35.8557879 6.27607588,35.7905156 6.7440307,36.1284062 L5.53722413,35.0373256 C4.55836887,34.1499348 4.4877525,32.6410016 5.37949369,31.6669356 L5.92227197,31.0756539 C5.43875832,31.34765 4.82825163,31.229375 4.48261181,30.796745 C4.13697199,30.364115 4.1588483,29.7456139 4.53419921,29.3382328 C4.90955011,28.9308517 5.52690266,28.855576 5.99000287,29.1607223 C6.45310307,29.4658685 6.62441791,30.0608133 6.39398721,30.5636853 L10.3195352,26.2864396 C10.53382,26.052972 10.6457149,25.7441284 10.6304371,25.428313 C10.6151593,25.1124975 10.4739697,24.8157759 10.2381395,24.6038674 L8.57711991,23.0952386 C8.99841402,23.5324306 8.9958946,24.2231372 8.57142223,24.6572747 C8.14694986,25.0914122 7.45313011,25.1129002 7.00234582,24.7058699 C6.55156153,24.2988396 6.5058779,23.6096258 6.89903208,23.14721 C7.29218625,22.6847941 7.98283213,22.615423 8.46093077,22.990327 L5.86723502,20.6369501 C6.18886201,21.1093262 6.10460533,21.7464087 5.67110832,22.1199054 C5.23761131,22.493402 4.59188327,22.485267 4.16802856,22.1009693 C3.74417385,21.7166716 3.67615426,21.0776707 4.00969741,20.6135485 C4.34324055,20.1494264 4.97292814,20.0068715 5.47543935,20.2817195 L4.83861324,19.7051253 C4.27335754,19.2095275 3.80947668,18.6100946 3.47238927,17.939673 C3.63587661,18.5016487 3.33905191,19.0944875 2.7897392,19.3031089 C2.2404265,19.5117303 1.62211244,19.2664487 1.36771427,18.7389997 C1.1133161,18.2115508 1.3078103,17.578118 1.81502031,17.2822042 C2.32223031,16.9862904 2.97273301,17.1267394 3.31107404,17.6052148 C2.86103352,16.5427689 2.57913156,15.4173591 2.47539792,14.2690261 C2.49982495,14.8779533 2.03437443,15.3963666 1.42353691,15.4405765 C0.812699392,15.4847863 0.276755407,15.0388498 0.212369335,14.4328146 C0.147983263,13.8267794 0.578374041,13.2791944 1.18499963,13.1953397 C1.79162522,13.1114849 2.35572399,13.5216002 2.45979358,14.1221499 C2.32531011,12.8448293 2.37437322,11.5549592 2.60550445,10.2914079 C2.47192849,10.8929483 1.87980827,11.2780693 1.27247537,11.1584235 C0.665142467,11.0387776 0.26516674,10.4582117 0.372017552,9.85140639 C0.478868365,9.24460104 1.053388,8.83393278 1.66542278,8.92687667 C2.27745756,9.01982056 2.70271452,9.58231536 2.62279576,10.1932106 C2.85767504,8.96661871 3.2724598,7.78103745 3.85385233,6.67447571 C3.53716108,7.19765391 2.85917545,7.37444094 2.32532379,7.07304465 C1.79147213,6.77164837 1.59621778,6.1018568 1.88511999,5.56298977 C2.17402221,5.02412274 2.84184411,4.81247049 3.39073424,5.08581668 C3.93962437,5.35916287 4.16964141,6.01793712 3.90931102,6.57103287 C5.83043629,3.00789179 9.41150199,0.63338455 13.4560092,0.240877023 C14.9297767,0.0856078619 15.7325571,0.51679452 16.141855,0.88902086 C16.9602398,1.62696902 17.0053659,2.74574628 16.2719615,3.69582569 L8.80738948,13.6055652 C8.00798293,14.6433507 7.98499814,16.0881932 8.96174601,16.9759551 L16.1332093,23.4842508 C16.5322342,23.8435777 16.7974568,24.3265805 16.8858028,24.8548159 C16.9247901,19.4808956 17.3821998,14.1180597 18.2539246,8.81446243 L23.3584444,8.81446243 C22.1257009,14.3917727 21.7442378,20.1102939 21.7442378,25.7979712 C21.7442378,37.762719 23.2336096,50.4826205 26.7188619,62.0077887 C30.1982099,50.4826205 31.693486,37.762719 31.693486,25.7979712 C31.693486,20.1102939 31.310336,14.3917727 30.0775925,8.81446243 L35.1840101,8.81446243 C36.070453,14.2252245 36.5287443,19.6968688 36.5546623,25.1789927 C36.5738688,24.5316242 36.8568055,23.9198568 37.3384645,23.4842508 L44.50803,16.9759551 C45.491104,16.0879834 45.4685409,14.6433507 44.6657605,13.6055652 L37.2001341,3.69582569 C36.4684167,2.7459561 36.5135428,1.62696902 37.3336145,0.88902086 C37.7393276,0.516584696 38.543795,0.0856078619 40.0194603,0.240877023 C47.0053584,0.990785108 51.7147086,7.04397435 51.0228455,14.0728414 C51.1508426,13.4881718 51.7158823,13.1050902 52.3095559,13.2004868 C52.9032295,13.2958833 53.3183627,13.8364674 53.2548986,14.4315068 C53.1914346,15.0265462 52.6715203,15.4683898 52.0709481,15.4376748 C51.4703759,15.4069598 50.9987274,14.9144046 50.9969085,14.3160265 C50.88968,15.4466856 50.6089895,16.5543235 50.1646063,17.6003889 C50.5042993,17.1240062 51.1538299,16.9854489 51.6599256,17.2814088 C52.1660213,17.5773687 52.3603941,18.2094325 52.1074017,18.7365169 C51.8544093,19.2636013 51.2381771,19.5104389 50.6887407,19.3047752 C50.1393042,19.0991114 49.8393631,18.5093339 49.9982302,17.9470168 C49.6614318,18.6142441 49.1993981,19.2111596 48.6370672,19.705545 L48.0044584,20.2796212 C48.5072836,20.0070733 49.1354631,20.1510708 49.4677651,20.6150548 C49.800067,21.0790388 49.7318269,21.7168691 49.3088039,22.1008426 C48.8857808,22.484816 48.2412135,22.4939931 47.8073228,22.1222202 C47.3734321,21.7504472 47.2868797,21.1148208 47.6057041,20.6415662 L45.0377344,22.9706037 C45.5222604,22.6161106 46.2010061,22.7017771 46.581241,23.1654141 C46.9614759,23.6290512 46.9097102,24.3078889 46.4635228,24.7091298 C46.0173354,25.1103707 45.3333701,25.0931504 44.9081468,24.6699699 C44.4829234,24.2467894 44.465726,23.5662154 44.8690387,23.1223058 L43.2375408,24.6032379 C43.0018968,24.8153478 42.860984,25.1122014 42.8460223,25.4280295 C42.8310605,25.7438576 42.9432851,26.0525843 43.1578321,26.2858101 L47.0816932,30.5649442 C46.8488252,30.0604766 47.0197685,29.4624065 47.4845817,29.1553793 C47.9493949,28.848352 48.5696671,28.9237935 48.9464737,29.333184 C49.3232804,29.7425745 49.3444168,30.3640066 48.9962893,30.7978098 C48.6481618,31.231613 48.0344349,31.3486103 47.5498236,31.0735557 L48.0926019,31.6667258 C48.5218374,32.1339002 48.7466176,32.7518202 48.7173425,33.3841354 C48.6880673,34.0164506 48.407143,34.6111891 47.9365584,35.0371157 L46.7314388,36.1281963 C47.2161464,35.7704988 47.8973034,35.8521664 48.2827474,36.3141911 C48.6681913,36.7762157 48.6234799,37.457444 48.1809189,37.8656618 C47.7383578,38.2738796 47.0523118,38.2667012 46.6184758,37.8493132 C46.1846399,37.4319253 46.1543353,36.7499121 46.5494584,36.2960549 L44.3317431,38.3044825 C44.8175801,37.9507898 45.4965358,38.0367144 45.877927,38.5001582 C46.2593181,38.963602 46.2100742,39.6428658 45.7657841,40.0470437 C45.3214939,40.4512215 44.6371737,40.4392925 44.2073839,40.0198778 C43.777594,39.6004631 43.7522915,38.9198997 44.1497626,38.470033 L42.5233256,39.9423623 C42.0349847,40.3853786 41.9993224,41.1381737 42.4436169,41.6249345 L46.7904823,47.0366942 C47.6170494,48.0674724 47.4487314,49.5695598 46.414291,50.3938653 L44.6786235,51.6265765 C45.2003113,51.3251883 45.8680285,51.4865071 46.1927335,51.9923816 C46.5174386,52.4982561 46.3837282,53.1688936 45.8895329,53.5131137 C45.3953376,53.8573338 44.7162992,53.7527973 44.3497512,53.2760675 C43.9832031,52.7993378 44.05942,52.1198493 44.52258,51.7352649 L39.9399625,54.9875244 C39.6879731,55.1808998 39.5244474,55.4667537 39.4860012,55.7810793 C39.447555,56.095405 39.5374001,56.4119427 39.735419,56.6598152 L42.5231147,60.805292 C43.2895977,61.8777461 43.039539,63.3651088 41.9639989,64.1309438 C40.8884587,64.8967788 39.3929486,64.6523429 38.6201298,63.5844002 L33.7321731,56.7813028 C33.339165,56.2832543 33.1612732,55.6501678 33.2376899,55.0215209 C33.3141065,54.3928739 33.6385615,53.8202468 34.1395731,53.429797 L40.603569,48.8976161 C40.8536348,48.7027836 41.0147829,48.4163449 41.0509653,48.1023746 C41.0871477,47.7884044 40.995345,47.4731038 40.7960929,47.2270038 L36.4717906,42.1979616 C36.0431166,41.733241 35.8179281,41.1178761 35.8459297,40.4876928 C34.880147,49.3923792 32.8583296,58.1073854 29.328162,66.6257873 L24.1074531,66.6266266 Z M17.0053659,42.1988009 L12.6791657,47.2276333 C12.4803771,47.473492 12.3883589,47.7880953 12.4235097,48.1017015 C12.4586606,48.4153077 12.6180765,48.7020077 12.8664179,48.8982456 L19.3337877,53.4304265 C19.6451782,53.6732672 19.8914588,53.9888882 20.0507443,54.3492422 C18.9328059,49.8855909 18.1215427,45.3513909 17.6225811,40.7780881 C17.581063,41.3067092 17.3639134,41.8065467 17.0053659,42.1988009 L17.0053659,42.1988009 Z M36.5620428,26.5738973 C36.5737494,31.1191841 36.3456966,35.6619498 35.8788253,40.1834491 C35.9696177,39.6594134 36.2338509,39.1806148 36.629521,38.8231654 L42.0444408,33.9233742 C42.2789031,33.7103848 42.4186812,33.4134059 42.4329983,33.0978272 C42.4473155,32.7822486 42.3349978,32.4739459 42.1207756,32.2408021 L37.1826319,26.8617747 C36.806404,26.4547133 36.585015,25.9295938 36.556771,25.3772757 C36.5601449,25.7755201 36.5620428,26.1754431 36.5620428,26.5736875 L36.5620428,26.5738973 Z M16.2909398,26.8617747 L11.3494222,32.2405922 C10.9082635,32.7287649 10.9445766,33.4794112 11.4308178,33.9231644 L16.8440507,38.8229556 C17.1673117,39.1142678 17.4041869,39.4881365 17.528955,39.9039647 C17.0824008,35.4745639 16.8642162,31.0253059 16.8752594,26.5736875 C16.8752594,26.279935 16.8752594,25.9874415 16.8769463,25.6924301 C16.7959292,26.1292631 16.5928309,26.5345349 16.2909398,26.8617747 L16.2909398,26.8617747 Z M41.8867104,3.2734516 C41.5409097,3.58550344 41.467955,4.09857117 41.7131808,4.49383092 C41.9584067,4.88909068 42.4520565,5.05410744 42.8873729,4.88633865 C43.3226892,4.71856985 43.5758426,4.26573877 43.4895218,3.80923779 C43.403201,3.35273681 43.0019606,3.02242154 42.5351343,3.02354685 C42.2951013,3.02275217 42.0635792,3.11197967 41.8867104,3.2734516 L41.8867104,3.2734516 Z M10.2256982,3.33639856 C9.91569017,3.67236898 9.88476234,4.17855313 10.1515827,4.54941883 C10.4184031,4.92028453 10.9099303,5.05430812 11.3294789,4.87059309 C11.7490276,4.68687807 11.9817472,4.23571603 11.8871685,3.78942787 C11.7925898,3.34313971 11.3966035,3.02389583 10.9382265,3.02437974 C10.6673288,3.02305609 10.4084995,3.13578443 10.2256982,3.33471998 L10.2256982,3.33639856 Z M41.3500473,59.0520094 C41.065614,58.624377 41.1095114,58.0591298 41.4565941,57.6800558 C41.8036768,57.3009818 42.3652107,57.2049939 42.8195348,57.4470764 C43.2738588,57.6891589 43.5048221,58.2074219 43.3801228,58.7049909 C43.2554236,59.2025599 42.806942,59.5522281 42.2915799,59.5537062 C41.9123324,59.5552557 41.5579095,59.366258 41.3492038,59.0511701 L41.3500473,59.0520094 Z M10.5569743,59.3614986 C10.0403051,59.0155101 9.90269347,58.3186114 10.2493921,57.8038275 C10.5960907,57.2890436 11.2961933,57.1507465 11.8142242,57.4947131 C12.3322552,57.8386797 12.4726166,58.5350353 12.1279527,59.0511701 C11.9156151,59.3644214 11.5608778,59.5523875 11.1811483,59.5528575 C10.9584847,59.552981 10.7409581,59.4862919 10.5569743,59.3614986 Z M41.6579169,55.1440525 C41.2999199,54.636427 41.4225352,53.936234 41.9319819,53.5790083 C42.4414286,53.2217826 43.145355,53.3424019 43.5053709,53.8486118 C43.8653867,54.3548218 43.7455609,55.0554927 43.2375408,55.4147244 C42.9920688,55.5874789 42.6876364,55.6560228 42.3913334,55.6052507 C42.0950303,55.5544785 41.8311758,55.3885574 41.6579169,55.1440525 Z M10.2345548,55.4147244 C9.77845259,55.0937215 9.62571267,54.48974 9.87480641,53.9921667 C10.1239002,53.4945934 10.700413,53.2520741 11.232667,53.420961 C11.7649211,53.5898479 12.09391,54.1196875 12.0075348,54.6688922 C11.9211595,55.2180968 11.4452238,55.6225964 10.8865635,55.6216119 C10.6530155,55.6214303 10.4252515,55.5493062 10.2345548,55.415144 L10.2345548,55.4147244 Z M46.2320997,46.3394517 C45.9037353,45.9291551 45.9039941,45.3474829 46.2327234,44.9374758 C46.5614527,44.5274686 47.1313614,44.3980001 47.6063465,44.6254242 C48.0813315,44.8528484 48.3352649,45.3767747 48.2183897,45.8882182 C48.1015146,46.3996616 47.6448659,46.7628131 47.1177519,46.7635107 C46.7728656,46.7646499 46.4464495,46.6085529 46.2318888,46.3398714 L46.2320997,46.3394517 Z M5.65151544,46.5190604 C5.21700275,46.1761458 5.09464743,45.5712656 5.36199644,45.0877837 C5.62934544,44.6043019 6.20833031,44.3833996 6.73199924,44.5650814 C7.25566817,44.7467633 7.57110485,45.2779764 7.4783903,45.822046 C7.38567576,46.3661156 6.91188352,46.7641682 6.3572959,46.7639242 C6.10098374,46.764026 5.85219876,46.6777124 5.65151544,46.5190604 L5.65151544,46.5190604 Z M43.9601909,43.5072583 C43.7035949,43.1961635 43.6332853,42.772487 43.7757469,42.3958237 C43.9182085,42.0191604 44.2517981,41.7467344 44.6508557,41.6811659 C45.0499132,41.6155974 45.4538124,41.7668479 45.7104083,42.0779427 C45.9670043,42.3890375 46.0373139,42.812714 45.8948523,43.1893773 C45.7523907,43.5660406 45.4188011,43.8384667 45.0197436,43.9040351 C44.620686,43.9696036 44.2167868,43.8183531 43.9601909,43.5072583 L43.9601909,43.5072583 Z M7.91414597,43.6625275 C7.48808295,43.3140199 7.37565156,42.7111012 7.64770027,42.2336996 C7.91974897,41.756298 8.49744293,41.5427559 9.01674922,41.7276366 C9.5360555,41.9125172 9.84648846,42.4422455 9.75242926,42.983014 C9.65837005,43.5237825 9.18707536,43.9188862 8.63553078,43.9193511 C8.37261514,43.9193511 8.11782734,43.8286735 7.91456771,43.6627373 L7.91414597,43.6625275 Z M44.8755757,28.1272184 C44.5152577,27.7329805 44.4815624,27.1415505 44.7947944,26.7093187 C45.1080263,26.2770868 45.6826271,26.1221158 46.1723477,26.3377897 C46.6620684,26.5534636 46.9331432,27.0808718 46.8222251,27.6022031 C46.711307,28.1235343 46.2486929,28.4963887 45.7131496,28.4960878 C45.3943796,28.4957641 45.090488,28.3618622 44.8759974,28.1272184 L44.8755757,28.1272184 Z M6.99517636,28.2031744 C6.59068057,27.8372557 6.50576462,27.2364282 6.79314546,26.7736935 C7.0805263,26.3109588 7.65855946,26.1177791 8.1683944,26.3140829 C8.67822934,26.5103866 8.97502273,27.0404043 8.87452134,27.5750939 C8.77401996,28.1097836 8.3047761,28.4972407 7.75810248,28.4969271 C7.47603157,28.4967443 7.20416056,28.391932 6.9955981,28.2029646 L6.99517636,28.2031744 Z M50.8632172,10.2540593 C50.7767502,9.80615572 50.9699687,9.35052982 51.3527671,9.0996588 C51.7355655,8.84878778 52.2325495,8.85208201 52.611955,9.10800527 C52.9913605,9.36392853 53.1784616,9.82207536 53.0860053,10.268793 C52.993549,10.7155106 52.639745,11.0628157 52.1895869,11.1487454 C52.1210766,11.1625561 52.0513605,11.1695844 51.9814586,11.1697278 C51.4367481,11.1694821 50.9682908,10.7858874 50.8632172,10.2540593 L50.8632172,10.2540593 Z M49.6148694,6.66125685 C49.3547095,6.22036586 49.4250956,5.66049729 49.7863873,5.29696115 C50.147679,4.93342501 50.7095185,4.85714036 51.1554859,5.11106964 C51.6014532,5.36499891 51.8200135,5.88563532 51.6880767,6.37976385 C51.55614,6.87389237 51.106703,7.21793327 50.5928824,7.21813182 C50.1904312,7.21922287 49.8178231,7.00706357 49.6148694,6.66125685 Z" id="Union_3" stroke-opacity="0" stroke="#000000" stroke-width="0.600000024"></path>
                        <path d="M66.3838505,45.7479602 L77.3513879,45.7479602 L77.3513879,41.5095317 L66.3838505,41.5095317 L66.3838505,35.4236101 L77.6634748,35.4236101 L77.6634748,31.2420437 L61.7373394,31.2420437 L61.7373394,56.2559056 L78.0280683,56.2559056 L78.0280683,52.0195753 L66.3838505,52.0195753 L66.3838505,45.7479602 Z M85.1904643,32.9714064 L80.5228662,32.9714064 L80.5228662,56.2559056 L96.9249343,56.2559056 L96.9249343,52.2847919 L85.1904643,52.2847919 L85.1904643,32.9714064 Z M118.269153,42.875061 C118.888568,42.5012897 119.429647,42.0120542 119.862694,41.4342052 C120.549707,40.5025902 120.853781,39.3426876 120.853781,38.0226899 C120.853781,35.9055739 120.131342,34.1663495 118.679716,32.9716162 C117.227668,31.7693294 115.248024,31.2198024 112.749641,31.2198024 L105.073989,31.2198024 L105.073989,56.2559056 L114.067365,56.2559056 C116.652416,56.2559056 118.773553,55.626436 120.379746,54.3530191 C121.975861,53.1067483 122.875192,51.1749413 122.79842,49.157587 C122.826483,47.5794341 122.26701,46.046706 121.227653,44.8543232 C120.413779,43.9699122 119.399509,43.2915728 118.269153,42.8756905 L118.269153,42.875061 Z M109.670524,35.4538246 L112.390741,35.4538246 C113.821281,35.4538246 114.756487,35.7091794 115.26637,36.1252588 C115.527074,36.3427834 115.728109,36.6225171 115.850689,36.9383237 C115.990354,37.3576525 116.057381,37.7975504 116.048907,38.2392275 C116.048907,39.3959827 115.703713,40.1160959 115.000674,40.6433816 C114.329476,41.1438099 113.134268,41.4635804 111.425802,41.4635804 L109.670946,41.4635804 L109.670524,35.4538246 Z M117.03662,51.2325286 C116.434587,51.6886842 115.32225,52.0004814 113.702139,51.9719455 L109.670524,51.9719455 L109.670524,45.7162769 L113.133846,45.7162769 C114.953861,45.7162769 116.214861,46.0242973 116.908411,46.5331185 C117.595213,47.0503327 117.956855,47.7408608 117.956855,48.9196475 C117.956855,50.0705277 117.645189,50.7606362 117.035987,51.2321089 L117.03662,51.2325286 Z M159.433635,42.6171883 L159.433635,42.6171883 L158.934295,42.3477754 C157.879866,41.7715233 156.894926,41.0774895 155.998569,40.2791285 C155.74198,40.0437925 155.522779,39.771063 155.348458,39.4702601 C155.230853,39.306824 155.163791,39.1127627 155.155513,38.9119206 C155.145034,38.3629623 155.428073,37.8496934 155.899039,37.5635968 C156.4376,37.1768926 157.135156,36.9639221 158.079008,36.9639221 C158.890672,36.9609811 159.695215,37.114607 160.448128,37.4163009 C161.401356,37.8322161 162.296996,38.3681463 163.113098,39.0109571 L164.054841,39.7061014 L164.054841,34.7230104 L163.771433,34.5551519 C162.894958,34.0711577 161.967405,33.6850466 161.005667,33.403852 C160.097687,33.1539481 159.160652,33.0237937 158.218604,33.0167282 C156.124037,33.0167282 154.326374,33.5975188 152.927676,34.7521758 C151.569673,35.8583182 150.793218,37.520648 150.81898,39.2667316 C150.790904,40.4992608 151.183456,41.704875 151.932582,42.6868496 C152.476968,43.3047993 153.096071,43.8533842 153.775793,44.3201134 C154.620747,44.9558776 155.704406,45.647245 157.016437,46.451917 C157.841569,46.9181441 158.505598,47.3579335 159.02265,47.7190392 C159.400289,47.97144 159.751466,48.2609835 160.070882,48.5833009 C160.406557,48.9908508 160.593834,49.4993889 160.602274,50.026255 C160.611277,50.6342597 160.319639,51.2078968 159.822056,51.5609019 C159.313861,51.9484453 158.539969,52.1878535 157.477819,52.1878535 C156.507088,52.1961842 155.549233,51.9665201 154.688858,51.519147 C153.8283,51.0785183 152.877067,50.3097262 151.860886,49.2610299 L150.844495,48.167851 L150.844495,53.9480603 L151.095852,54.113401 C152.00282,54.8367048 153.034259,55.3901047 154.139965,55.7466647 C155.28222,56.1222111 156.479732,56.3042801 157.682574,56.2852808 C159.791269,56.2852808 161.587035,55.7028116 162.971393,54.5498332 C164.332692,53.4610439 165.115063,51.8097439 165.092952,50.0719965 C165.092952,48.5587516 164.73342,47.2322494 163.959528,46.1512403 C163.185637,45.0456819 161.689306,43.9124269 159.431948,42.6188669 L159.433635,42.6171883 Z M188.719412,52.4064893 C190.447036,50.3739377 191.375966,47.7873297 191.334195,45.1256246 C191.338882,43.497164 191.025559,41.8833085 190.41164,40.3737588 C189.759991,38.8932101 188.821939,37.5547135 187.650936,36.4345382 C186.493437,35.2997255 185.118649,34.4078218 183.608144,33.8117483 C182.06819,33.205816 180.426566,32.8965082 178.770585,32.9002355 C177.131054,32.8961411 175.506003,33.205577 173.983846,33.8117483 C172.466118,34.4139786 171.080944,35.3048599 169.905839,36.4345382 C168.755181,37.5411897 167.837614,38.8648459 167.206709,40.3282271 C166.559317,41.7677625 166.225573,43.327377 166.227431,44.9044709 C166.187769,47.6469107 167.105913,50.3180364 168.825133,52.4618826 C170.517572,54.5932666 172.780624,56.0135598 175.5466,56.7091237 C177.362284,58.0233649 179.317603,59.1351052 181.377355,60.0243301 C183.275181,60.8216582 184.996931,61.2073453 186.564747,61.2073453 L187.019803,61.2073453 C187.147256,61.2080602 187.274447,61.1957557 187.399368,61.1705942 L187.585144,61.1420582 L191.034549,58.1306758 L190.772649,57.4074152 L190.579703,56.9512596 L190.128021,57.0517649 C189.733198,57.1340076 189.33422,57.1950842 188.932812,57.2347308 C188.618971,57.2831326 188.301369,57.3031476 187.983899,57.2945304 C187.031274,57.2828283 186.083351,57.1595119 185.159723,56.92713 C184.55052,56.7559142 183.851277,56.512939 183.109438,56.2277893 C185.379238,55.3903849 187.288029,54.137111 188.717092,52.4052304 L188.719412,52.4064893 Z M186.153129,47.5983909 C185.756456,48.554273 185.170563,49.4209738 184.430325,50.1469034 L184.405442,50.1695643 C182.939443,51.7050447 180.897683,52.5646559 178.76932,52.5424547 C177.721122,52.5428744 176.683557,52.3334125 175.718459,51.9264139 C174.749344,51.5083526 173.86807,50.9123391 173.120757,50.1695643 L173.120757,50.1469034 C172.38,49.4250127 171.799198,48.5569175 171.415666,47.5983909 C171.005541,46.6388677 170.799279,45.6053153 170.809837,44.562669 C170.800584,43.5077893 171.008408,42.4621869 171.420516,41.490228 C171.804718,40.5382407 172.380684,39.6745787 173.112955,38.9524165 C173.873817,38.2086726 174.769817,37.6156087 175.753253,37.2047991 C177.696779,36.4045807 179.880029,36.4045807 181.823555,37.2047991 C182.792657,37.5962262 183.668905,38.1847587 184.396164,38.9326931 C185.15482,39.6801282 185.75412,40.5721903 186.15819,41.555483 C186.567372,42.5049501 186.771889,43.5292519 186.758536,44.5622493 C186.767376,45.6041955 186.56312,46.6370423 186.15819,47.5979712 L186.153129,47.5983909 Z M209.262115,47.2832365 C209.239341,48.7717222 208.76151,49.8774904 207.689871,50.760846 C206.65408,51.6337105 205.246315,52.1234378 203.409219,52.1234378 C202.43926,52.1359374 201.476589,51.955231 200.577873,51.5919557 C199.754676,51.242453 199.025247,50.7058572 198.44809,50.0252059 C198.12975,49.6504369 197.908499,49.203791 197.803673,48.7243021 C197.658384,48.2238738 197.575512,47.2578479 197.575512,45.8618942 L197.575512,32.9913396 L193.247203,32.9913396 L193.247203,45.9873684 C193.247203,47.7639414 193.363814,49.0849882 193.638366,50.0249961 C193.893842,50.9433721 194.345632,51.7960159 194.962838,52.5246198 C195.938268,53.7326433 197.191928,54.6889511 198.61763,55.3125405 C200.131502,55.9552685 201.763427,56.2768465 203.409219,56.2567449 C206.350006,56.2567449 208.828567,55.4399032 210.720278,53.8047511 C212.632654,52.1872241 213.601389,49.9800939 213.567017,47.3789158 L213.567017,32.9913396 L209.262115,32.9913396 L209.262115,47.2832365 Z M220.998483,52.2394701 L220.998483,46.5331185 L232.033287,46.5331185 L232.033287,42.5450092 L220.997639,42.5450092 L220.997639,37.0610702 L232.378059,37.0610702 L232.378059,33.0939432 L216.333415,33.0939432 L216.333415,56.2047087 L232.743074,56.2047087 L232.743074,52.2390504 L220.998483,52.2394701 Z M145.618093,36.2620635 C144.443208,35.1529413 143.063809,34.2804176 141.555901,33.6925687 C139.999382,33.106489 138.349048,32.8057846 136.684814,32.8050166 C135.047617,32.8069266 133.424669,33.1077591 131.896599,33.6925687 C130.375507,34.2666139 128.986688,35.1406049 127.813531,36.2620635 C126.640104,37.3303542 125.698925,38.626399 125.047977,40.0703544 C124.419518,41.485917 124.091587,43.0153579 124.084724,44.5628788 C124.056931,47.7991925 125.412596,50.8947917 127.813742,53.0779235 C128.987263,54.1834049 130.367308,55.0491112 131.875723,55.6260164 C134.983315,56.7999646 138.414011,56.8087651 141.527645,55.6507755 C143.050058,55.0580271 144.446613,54.1851872 145.644241,53.0779235 C146.796802,52.0019242 147.726384,50.7117001 148.380484,49.2801238 C149.005894,47.8518081 149.326021,46.3097059 149.320541,44.7517197 C149.334275,43.1683049 149.022106,41.5988535 148.403258,40.1400157 C147.751588,38.6710192 146.803609,37.350877 145.618093,36.2614341 L145.618093,36.2620635 Z M144.11628,47.6153866 C143.298953,49.5272389 141.748157,51.0351408 139.808425,51.8040869 C137.805771,52.5741256 135.586631,52.5741256 133.583977,51.8040869 C132.625705,51.4109158 131.750553,50.8414341 131.00441,50.1255014 C130.262045,49.416275 129.675318,48.56177 129.281183,47.6158062 C128.873623,46.6837961 128.667919,45.6768192 128.677464,44.6604466 C128.673366,43.6349719 128.878763,42.6193661 129.281183,41.675292 C129.685817,40.7453826 130.271487,39.9043963 131.00441,39.2008471 C131.780673,38.4819072 132.677765,37.9041659 133.654829,37.4939355 C135.614307,36.7188786 137.797496,36.7188786 139.756973,37.4939355 C140.73144,37.8794552 141.615699,38.4604885 142.354675,39.2008471 C143.115633,39.9224145 143.72265,40.789172 144.139475,41.7493596 C144.525927,42.6715083 144.722816,43.661344 144.718523,44.6604466 C144.726966,45.6765433 144.521905,46.6831811 144.116491,47.6158062 L144.11628,47.6153866 Z M68.3702418,25.729359 C70.4487832,25.729359 72.0992594,25.0745008 73.3176638,23.7826194 C74.5145595,22.4844433 75.1486443,20.7275938 75.1486443,18.5370396 L75.1486443,8.98441922 L73.7642855,8.98441922 L73.7642855,18.6117367 C73.7642855,20.3652291 73.2792855,21.7590846 72.3227811,22.7970799 C71.3241028,23.8285707 70.0173441,24.3617314 68.3706636,24.3617314 C66.727357,24.3617314 65.4172243,23.8285707 64.4484895,22.7970799 C63.4586677,21.7588747 62.9652329,20.3637603 62.9681851,18.6117367 L62.9681851,8.98441922 L61.647509,8.98441922 L61.647509,18.5355709 C61.647509,20.7481564 62.244059,22.505006 63.4586677,23.7811507 C64.6699026,25.073032 66.3165831,25.7278902 68.3706636,25.7278902 L68.3702418,25.729359 Z M81.512688,11.4645293 L92.1599145,24.2349982 L93.2277581,24.2349982 L93.2277581,9.80251984 L92.0804167,9.80251984 L92.0804167,22.3797416 L81.558025,9.80251984 L80.3505858,9.80251984 L80.3505858,24.236467 L81.5122663,24.236467 L81.512688,11.4645293 Z M98.5035039,24.4525849 L99.7396214,24.4525849 L99.7396214,9.99807505 L98.5035039,9.99807505 L98.5035039,24.4525849 Z M110.192004,24.6919931 L116.292039,9.99891435 L115.056765,9.99891435 L110.091841,22.1266948 L105.187015,9.99891435 L103.897758,9.99891435 L110.017404,24.6919931 L110.192004,24.6919931 Z M127.71147,23.4653667 L120.911981,23.4653667 L120.911981,17.5913665 L127.322416,17.5913665 L127.322416,16.6660462 L120.911981,16.6660462 L120.911981,10.934516 L127.544672,10.934516 L127.544672,9.99786523 L119.748613,9.99786523 L119.748613,24.4525849 L127.711259,24.4525849 L127.71147,23.4653667 Z M133.983364,17.5040801 L135.151792,17.5040801 C135.773698,17.4896634 136.395223,17.5459814 137.004282,17.6719386 C137.390432,17.7571513 137.744958,17.9480696 138.027842,18.2231441 C138.300773,18.5304011 138.556185,18.8526351 138.792877,19.1883308 C139.107916,19.6230845 139.51869,20.1969509 139.954136,20.9011175 L142.252614,24.4527947 L143.557686,24.4527947 L139.589543,18.3733775 C139.430947,18.1214088 139.24635,17.886603 139.038751,17.6727779 C138.810377,17.4777991 138.566361,17.3017302 138.309142,17.1463315 C139.224527,16.8546773 139.915336,16.4161468 140.366597,15.8177311 C140.838701,15.186514 141.078694,14.4131481 141.04644,13.6269671 C141.04644,12.454685 140.655488,11.5599989 139.837314,10.9357749 C139.008386,10.3126 137.850501,9.99912417 136.330975,9.99912417 L132.839186,9.99912417 L132.839186,24.4525849 L133.983575,24.4525849 L133.983364,17.5040801 Z M133.983364,10.9882307 L136.396766,10.9882307 C137.484221,10.9882307 138.307455,11.2012012 138.913284,11.6829553 C139.493808,12.1412091 139.78059,12.7885137 139.78059,13.6267573 C139.8042,14.1684269 139.67217,14.7055729 139.399971,15.1752525 C139.117546,15.6173735 138.700779,15.9583504 138.210245,16.1486223 C137.869536,16.2908929 137.512739,16.3915039 137.147673,16.4482498 C136.701895,16.488326 135.954573,16.5147637 134.875764,16.5147637 L133.981888,16.5147637 L133.983364,10.9882307 Z M154.590593,20.7001069 C154.587508,20.2334629 154.511093,19.7701701 154.364119,19.327024 C154.196073,18.9060424 153.955124,18.5176507 153.652223,18.1795009 C153.197167,17.6727779 152.294013,17.1463315 150.988941,16.6131708 C150.883386,16.5705452 150.780568,16.5214937 150.681071,16.4662946 C149.487549,15.9627189 148.722515,15.5338403 148.381117,15.1234261 C148.007499,14.7003378 147.814838,14.1487169 147.844243,13.5862614 C147.823253,12.8483326 148.122952,12.1372118 148.666634,11.6349058 C149.249612,11.1168599 150.010333,10.8414838 150.791567,10.8656939 C151.338381,10.8673732 151.88071,10.96394 152.394176,11.1510535 C153.005148,11.3810033 153.583656,11.6886396 154.115293,12.0663022 L154.115293,10.7727423 C153.601776,10.4742551 153.057394,10.2317652 152.491597,10.0494817 C151.956761,9.89783465 151.404515,9.81539474 150.848502,9.80419842 C149.612384,9.80419842 148.620875,10.1686613 147.845297,10.8902433 C147.078713,11.5927768 146.655096,12.5909766 146.683617,13.6275966 C146.683617,14.5407471 146.927804,15.2940124 147.439795,15.8714458 C147.944195,16.4488792 148.88636,17.0254734 150.267767,17.591996 C151.598986,18.1557909 152.447315,18.6343976 152.813595,19.039776 C153.1945,19.4910517 153.389423,20.0691716 153.359115,20.6577226 C153.359115,21.5444354 153.103963,22.2395797 152.541152,22.7660261 C152.013978,23.2761062 151.254847,23.5423719 150.316899,23.5423719 C149.714776,23.5272132 149.12158,23.3939466 148.571321,23.1502123 C147.874929,22.8500318 147.224084,22.4545415 146.637647,21.9752024 L146.637647,23.3675891 C147.20512,23.7701823 147.824537,24.0948336 148.479171,24.3327758 C149.078061,24.5375974 149.706818,24.642662 150.340095,24.6437338 C151.581273,24.6437338 152.588808,24.2939585 153.390956,23.5419522 C154.186173,22.8124019 154.624218,21.7754677 154.591647,20.6996873 L154.590593,20.7001069 Z M160.45108,9.99870452 L159.223819,9.99870452 L159.223819,24.4525849 L160.45108,24.4525849 L160.45108,9.99870452 Z M173.595003,24.1141401 C174.356169,23.9141275 175.071906,23.5712102 175.703698,23.1038414 C176.600451,22.4358559 177.3226,21.5630696 177.809231,20.5591057 C178.800658,18.4382077 178.800658,15.9900012 177.809231,13.8691031 C177.320755,12.8661987 176.598942,11.9936763 175.703698,11.3239478 C175.075055,10.862637 174.366894,10.5196646 173.614192,10.3119705 C172.697745,10.0957609 171.758405,9.99050644 170.816585,9.9984947 L165.830363,9.9984947 L165.830363,24.4525849 L170.816585,24.4525849 C171.753949,24.467507 172.688901,24.3536891 173.595003,24.1143499 L173.595003,24.1141401 Z M167.065004,23.424661 L167.065004,11.0290582 L170.524531,11.0290582 C171.342061,11.0259733 172.157647,11.1086112 172.957755,11.2756885 C173.588532,11.4122802 174.188858,11.662597 174.729059,12.0142661 C175.540711,12.5705508 176.193979,13.3262531 176.625409,14.2079676 C177.080817,15.1531272 177.309429,16.1906032 177.293233,17.2386537 C177.30341,18.2866326 177.0751,19.3233146 176.625409,20.2710185 C176.188369,21.1483625 175.536169,21.901963 174.729059,22.4622021 C174.1889,22.8153114 173.588697,23.0677103 172.957755,23.2070744 C172.155636,23.3619795 171.339644,23.4344694 170.522633,23.4234021 L167.065004,23.424661 Z M186.710668,10.5478118 L180.734625,24.452375 L181.896305,24.452375 L183.932883,19.6436471 L189.949625,19.6436471 L191.991264,24.452375 L193.152523,24.452375 L187.174792,10.5478118 L186.710668,10.5478118 Z M184.309286,18.7034294 L186.956753,12.4538457 L189.568794,18.7034294 L184.309286,18.7034294 Z M205.104399,24.1135106 C205.866095,23.9217686 206.580703,23.5780514 207.204871,23.1032119 C208.105206,22.4399632 208.827129,21.5658754 209.306608,20.5584763 C210.319394,18.4423297 210.319394,15.9846202 209.306608,13.8684736 C208.825323,12.8620993 208.103738,11.9882765 207.204871,11.3233183 C206.584042,10.8545942 205.877299,10.5108516 205.124221,10.3113411 C204.205367,10.0954056 203.263757,9.99015864 202.319656,9.99786523 L197.361269,9.99786523 L197.361269,24.4525849 L202.319234,24.4525849 C203.258851,24.4680805 204.19611,24.3542582 205.104399,24.1143499 L205.104399,24.1135106 Z M198.563225,23.4244717 L198.563225,11.0290602 L202.034138,11.0290602 C202.852783,11.0260101 203.669484,11.1086463 204.470736,11.2756885 C205.100784,11.4121001 205.700311,11.6624417 206.23951,12.0142661 C207.052327,12.5669277 207.703681,13.3237824 208.127426,14.2079676 C208.589765,15.1509837 208.821007,16.1895726 208.802208,17.2386537 C208.814957,18.2876602 208.584027,19.3254209 208.127426,20.2710185 C207.698042,21.1508579 207.047779,21.9055771 206.23951,22.4622021 C205.700354,22.815467 205.100949,23.0678906 204.470736,23.2070744 C203.668168,23.3618179 202.851773,23.4343059 202.034349,23.4234021 L198.563225,23.4244717 Z" id="Path_868"></path>
                    </g>
                </g>
            </g>
        </g>
    </g>
</svg>