<?xml version="1.0" encoding="UTF-8"?>
<svg width="51px" height="20px" viewBox="0 0 51 20" version="1.1" xmlns="http://www.w3.org/2000/svg" xmlns:xlink="http://www.w3.org/1999/xlink">
    <!-- Generator: Sketch 63.1 (92452) - https://sketch.com -->
    <title>Group 73</title>
    <desc>Created with Sketch.</desc>
    <defs>
        <polygon id="path-1" points="0.0478256718 0.151850988 8.75993933 0.151850988 8.75993933 9.64154026 0.0478256718 9.64154026"></polygon>
        <polygon id="path-3" points="0.0382829971 0.13217399 1.79598286 0.13217399 1.79598286 1.88999986 0.0382829971 1.88999986"></polygon>
        <polygon id="path-5" points="0 19.7848965 50.3399361 19.7848965 50.3399361 -4.19999968e-05 0 -4.19999968e-05"></polygon>
    </defs>
    <g id="Landing" stroke="none" stroke-width="1" fill="none" fill-rule="evenodd">
        <g id="Apoyos-Financieros" transform="translate(-1196.000000, -56.000000)">
            <g id="Group-8" transform="translate(1180.000000, 47.000000)">
                <g id="Group-73" transform="translate(16.500000, 9.000000)">
                    <path d="M38.3155681,14.6932159 L32.7694685,14.6932159 C32.5955885,14.6932159 32.4544685,14.5520959 32.4544685,14.3782159 C32.4544685,14.2043359 32.5955885,14.0632159 32.7694685,14.0632159 L38.2851181,14.0632159 C38.494908,14.0191159 39.9523079,13.650986 40.0174079,11.9413761 C40.0820879,10.2458362 39.109998,10.0761562 38.952288,10.0595662 L35.3925783,10.0595662 C33.9652084,9.82163625 33.6663784,8.53811635 33.7077484,7.8556164 C33.6999784,6.08153653 35.1972783,5.28731659 35.9919182,5.11490661 C36.0137582,5.11028661 36.0362282,5.10776661 36.0586982,5.10776661 L41.0524979,5.10776661 C41.2263778,5.10776661 41.3674978,5.2488866 41.3674978,5.42276658 C41.3674978,5.59685657 41.2263778,5.73776656 41.0524979,5.73776656 L36.0958682,5.73776656 C35.8541583,5.79929656 34.3247284,6.25310652 34.3377484,7.8623364 C34.3377484,7.8701064 34.3375384,7.8778764 34.3371184,7.8856464 C34.3335484,7.94108639 34.2686584,9.21053629 35.4690183,9.43019628 C35.4690183,9.43019628 38.985048,9.42935628 38.982528,9.43019628 C39.000168,9.43103628 40.7385479,9.56249627 40.6471979,11.9653161 C40.5764279,13.8231859 39.125748,14.5590259 38.3686981,14.6888059 C38.3510581,14.6917459 38.3334181,14.6932159 38.3155681,14.6932159" id="Fill-1" fill="#000000"></path>
                    <g id="Group-5" transform="translate(41.579997, 5.084898)">
                        <mask id="mask-2" fill="white">
                            <use xlink:href="#path-1"></use>
                        </mask>
                        <g id="Clip-4"></g>
                        <path d="M1.56393288,2.41418081 C1.52844288,2.5758808 1.3180229,3.54272073 1.11117291,4.64039064 L7.8483924,4.58411065 C7.93659239,4.03538069 8.13000238,2.73884079 8.13000238,1.93370085 C8.13000238,1.19702091 7.24485244,0.849890935 7.04808246,0.78185094 L3.41634274,0.78185094 C2.25378283,0.78185094 1.63596287,2.23421083 1.56393288,2.41418081 M7.18773245,9.64154026 L2.06961284,9.64154026 C2.05827284,9.64154026 2.04735284,9.64091026 2.03601284,9.63965026 C1.3612829,9.56741027 0.0773429941,9.0978503 0.0485729963,7.8372204 C0.0183329986,6.4974205 0.91566293,2.42720081 0.953882927,2.25458083 C0.957032927,2.24030083 0.961022926,2.22665083 0.966062926,2.21300083 C0.997352924,2.12900084 1.74999287,0.151850988 3.41634274,0.151850988 L7.09806246,0.151850988 C7.12746245,0.151850988 7.15707245,0.156050988 7.18542245,0.164240987 C7.24968244,0.182930986 8.76000233,0.634220951 8.76000233,1.93370085 C8.76000233,3.02591077 8.43975235,4.87286063 8.42610235,4.95098062 C8.40006236,5.10092061 8.27049237,5.2105406 8.11845238,5.2118006 L0.995462924,5.2714406 C0.815702937,6.28406052 0.666812949,7.29920044 0.678572948,7.8229404 C0.700832946,8.79860033 1.92849285,8.99054031 2.08872284,9.01154031 L7.18773245,9.01154031 C7.36161244,9.01154031 7.50273243,9.1526603 7.50273243,9.32654029 C7.50273243,9.50042027 7.36161244,9.64154026 7.18773245,9.64154026" id="Fill-3" fill="#000000" mask="url(#mask-2)"></path>
                    </g>
                    <path d="M24.5476541,12.691244 C25.1885741,13.9117639 26.177674,14.0936239 26.323624,14.1139939 L29.4933637,14.0236939 C30.5948137,13.669424 30.9957036,12.512324 31.0412736,12.3697341 L31.9131936,7.04644446 C32.0043335,6.45319451 31.0952436,5.81857455 30.7212336,5.82130455 C30.4906537,5.82214455 29.7529237,5.82445455 29.0149838,5.82592455 C28.5695738,5.82676455 28.1237438,5.82676455 27.7900539,5.82634455 C27.5615739,5.82613455 27.3963039,5.82592455 27.2755539,5.81836455 C26.742364,5.90971455 25.792324,6.75769448 25.498324,7.54666442 C25.4430941,7.7948844 25.0144841,10.1294542 24.5476541,12.691244 M23.1652242,18.8597836 C23.1465342,18.8597836 23.1276342,18.8581036 23.1087342,18.8547436 C22.9375842,18.8236636 22.8239743,18.6598636 22.8548442,18.4887136 C22.8548442,18.4887136 23.3565342,15.7146138 23.8617942,12.940514 C24.1144242,11.5530441 24.3681041,10.1657842 24.5600441,9.1250243 C24.6562241,8.60443434 24.7366541,8.17036437 24.7944041,7.8662844 C24.8418641,7.61512442 24.8731541,7.45027443 24.9088541,7.34170444 L24.9031841,7.33981444 C25.2591341,6.36709451 26.367514,5.32486459 27.1839939,5.1950846 C27.2127639,5.1904646 27.2415339,5.1900446 27.2694639,5.1931946 C27.4777839,5.2003346 29.4746737,5.1959246 30.7928436,5.19103698 L30.7938936,5.19103698 C31.0994436,5.1841646 32.7317735,5.80219456 32.5417235,7.09474446 C32.5402535,7.10608446 32.5400435,7.11763445 32.5381535,7.12897445 L31.6595136,12.492374 C31.6576236,12.503924 31.6551036,12.515474 31.6519536,12.526814 C31.6328436,12.594014 31.1712636,14.1782539 29.6357437,14.6387839 C29.6094937,14.6469739 29.5821937,14.6513839 29.5544737,14.6520139 L26.317954,14.7444139 C26.304724,14.7454639 26.292124,14.7446239 26.279524,14.7431539 C26.228284,14.7385339 25.2057941,14.6295439 24.3836441,13.592564 C24.0350442,15.5073438 23.6868642,17.4280037 23.4747642,18.6008536 C23.4472542,18.7531036 23.3145342,18.8597836 23.1652242,18.8597836" id="Fill-6" fill="#000000"></path>
                    <path d="M18.9102676,3.8631387 C18.9102676,4.34844867 18.5167276,4.74198864 18.0314176,4.74198864 C17.5461077,4.74198864 17.1525677,4.34844867 17.1525677,3.8631387 C17.1525677,3.37761874 17.5461077,2.98428877 18.0314176,2.98428877 C18.5167276,2.98428877 18.9102676,3.37761874 18.9102676,3.8631387" id="Fill-8" fill="#000000"></path>
                    <path d="M16.9201817,0.878849933 C16.9201817,1.3641599 16.5266417,1.75769987 16.0413318,1.75769987 C15.5560218,1.75769987 15.1624818,1.3641599 15.1624818,0.878849933 C15.1624818,0.39332997 15.5560218,0 16.0413318,0 C16.5266417,0 16.9201817,0.39332997 16.9201817,0.878849933" id="Fill-10" fill="#000000"></path>
                    <path d="M14.9218009,3.8631387 C14.9218009,4.34844867 14.5282609,4.74198864 14.0429509,4.74198864 C13.557431,4.74198864 13.164101,4.34844867 13.164101,3.8631387 C13.164101,3.37761874 13.557431,2.98428877 14.0429509,2.98428877 C14.5282609,2.98428877 14.9218009,3.37761874 14.9218009,3.8631387" id="Fill-12" fill="#000000"></path>
                    <path d="M18.8088586,15.8301768 C18.8088586,16.3156967 18.4153186,16.7090267 17.9300086,16.7090267 C17.4446987,16.7090267 17.0511587,16.3156967 17.0511587,15.8301768 C17.0511587,15.3446568 17.4446987,14.9513269 17.9300086,14.9513269 C18.4153186,14.9513269 18.8088586,15.3446568 18.8088586,15.8301768" id="Fill-14" fill="#000000"></path>
                    <path d="M16.9159817,13.024703 C16.9159817,13.510013 16.5224417,13.9035529 16.0371318,13.9035529 C15.5518218,13.9035529 15.1582818,13.510013 15.1582818,13.024703 C15.1582818,12.539183 15.5518218,12.1456431 16.0371318,12.1456431 C16.5224417,12.1456431 16.9159817,12.539183 16.9159817,13.024703" id="Fill-16" fill="#000000"></path>
                    <path d="M12.886712,13.024703 C12.886712,13.426013 12.561422,13.7513029 12.1601121,13.7513029 C11.7585921,13.7513029 11.4333021,13.426013 11.4333021,13.024703 C11.4333021,12.623393 11.7585921,12.2978931 12.1601121,12.2978931 C12.561422,12.2978931 12.886712,12.623393 12.886712,13.024703" id="Fill-18" fill="#000000"></path>
                    <path d="M14.8257259,15.8301768 C14.8257259,16.2314868 14.5004359,16.5569867 14.0991259,16.5569867 C13.697606,16.5569867 13.372316,16.2314868 13.372316,15.8301768 C13.372316,15.4288668 13.697606,15.1033668 14.0991259,15.1033668 C14.5004359,15.1033668 14.8257259,15.4288668 14.8257259,15.8301768" id="Fill-20" fill="#000000"></path>
                    <path d="M12.83564,18.9061306 C12.83564,19.3074405 12.51035,19.6327305 12.1088301,19.6327305 C11.7075201,19.6327305 11.3822301,19.3074405 11.3822301,18.9061306 C11.3822301,18.5046106 11.7075201,18.1793206 12.1088301,18.1793206 C12.51035,18.1793206 12.83564,18.5046106 12.83564,18.9061306" id="Fill-22" fill="#000000"></path>
                    <path d="M10.7910172,15.8301768 C10.7910172,16.1409768 10.5388072,16.3933967 10.2277972,16.3933967 C9.91678724,16.3933967 9.66457726,16.1409768 9.66457726,15.8301768 C9.66457726,15.5191668 9.91678724,15.2669568 10.2277972,15.2669568 C10.5388072,15.2669568 10.7910172,15.5191668 10.7910172,15.8301768" id="Fill-24" fill="#000000"></path>
                    <path d="M3.8664567,9.94156724 C3.8664567,10.2525772 3.61424672,10.5047872 3.30323675,10.5047872 C2.99222677,10.5047872 2.74022679,10.2525772 2.74022679,9.94156724 C2.74022679,9.63055726 2.99222677,9.37834728 3.30323675,9.37834728 C3.61424672,9.37834728 3.8664567,9.63055726 3.8664567,9.94156724" id="Fill-26" fill="#000000"></path>
                    <path d="M4.87512863,6.94045747 C4.87512863,7.25146744 4.62312865,7.50367742 4.31190867,7.50367742 C4.00089869,7.50367742 3.74889871,7.25146744 3.74889871,6.94045747 C3.74889871,6.62944749 4.00089869,6.37723751 4.31190867,6.37723751 C4.62312865,6.37723751 4.87512863,6.62944749 4.87512863,6.94045747" id="Fill-28" fill="#000000"></path>
                    <path d="M6.78348248,3.8631387 C6.78348248,4.17414868 6.5312725,4.42635866 6.22026252,4.42635866 C5.90925255,4.42635866 5.65725257,4.17414868 5.65725257,3.8631387 C5.65725257,3.55212873 5.90925255,3.29991875 6.22026252,3.29991875 C6.5312725,3.29991875 6.78348248,3.55212873 6.78348248,3.8631387" id="Fill-30" fill="#000000"></path>
                    <path d="M8.71911533,0.945188928 C8.71911533,1.2561989 8.46690535,1.50840888 8.15589537,1.50840888 C7.8448854,1.50840888 7.59288542,1.2561989 7.59288542,0.945188928 C7.59288542,0.634178951 7.8448854,0.381968971 8.15589537,0.381968971 C8.46690535,0.381968971 8.71911533,0.634178951 8.71911533,0.945188928" id="Fill-32" fill="#000000"></path>
                    <path d="M8.77365233,18.9061306 C8.77365233,19.2169305 8.52144235,19.4693505 8.21043237,19.4693505 C7.89942239,19.4693505 7.64721241,19.2169305 7.64721241,18.9061306 C7.64721241,18.5951206 7.89942239,18.3429106 8.21043237,18.3429106 C8.52144235,18.3429106 8.77365233,18.5951206 8.77365233,18.9061306" id="Fill-34" fill="#000000"></path>
                    <path d="M6.83804048,15.8301768 C6.83804048,16.1409768 6.5858305,16.3933967 6.27482052,16.3933967 C5.96381054,16.3933967 5.71181056,16.1409768 5.71181056,15.8301768 C5.71181056,15.5191668 5.96381054,15.2669568 6.27482052,15.2669568 C6.5858305,15.2669568 6.83804048,15.5191668 6.83804048,15.8301768" id="Fill-36" fill="#000000"></path>
                    <path d="M4.84795463,13.024703 C4.84795463,13.335503 4.59574465,13.587923 4.28473467,13.587923 C3.9737247,13.587923 3.72151471,13.335503 3.72151471,13.024703 C3.72151471,12.713693 3.9737247,12.461483 4.28473467,12.461483 C4.59574465,12.461483 4.84795463,12.713693 4.84795463,13.024703" id="Fill-38" fill="#000000"></path>
                    <path d="M3.51208173,15.8301768 C3.51208173,15.9906168 3.38209174,16.1208168 3.22165175,16.1208168 C3.06121177,16.1208168 2.93101178,15.9906168 2.93101178,15.8301768 C2.93101178,15.6695268 3.06121177,15.5395368 3.22165175,15.5395368 C3.38209174,15.5395368 3.51208173,15.6695268 3.51208173,15.8301768" id="Fill-40" fill="#FCB618"></path>
                    <path d="M1.69877387,13.024703 C1.69877387,13.185143 1.56878388,13.315133 1.40834389,13.315133 C1.2479039,13.315133 1.11770391,13.185143 1.11770391,13.024703 C1.11770391,12.864053 1.2479039,12.734063 1.40834389,12.734063 C1.56878388,12.734063 1.69877387,12.864053 1.69877387,13.024703" id="Fill-42" fill="#FCB618"></path>
                    <path d="M0.581090955,9.88957124 C0.581090955,10.0500112 0.450890965,10.1800012 0.290450978,10.1800012 C0.13001099,10.1800012 2.09999984e-05,10.0500112 2.09999984e-05,9.88957124 C2.09999984e-05,9.72913125 0.13001099,9.59893126 0.290450978,9.59893126 C0.450890965,9.59893126 0.581090955,9.72913125 0.581090955,9.88957124" id="Fill-44" fill="#FCB618"></path>
                    <path d="M1.61704188,6.94526647 C1.61704188,7.10570646 1.48684189,7.23590645 1.3264019,7.23590645 C1.16596191,7.23590645 1.03597192,7.10570646 1.03597192,6.94526647 C1.03597192,6.78482648 1.16596191,6.65483649 1.3264019,6.65483649 C1.48684189,6.65483649 1.61704188,6.78482648 1.61704188,6.94526647" id="Fill-46" fill="#FCB618"></path>
                    <path d="M3.57984873,3.8919717 C3.57984873,4.05241169 3.44985874,4.18261168 3.28941875,4.18261168 C3.12897876,4.18261168 2.99877877,4.05241169 2.99877877,3.8919717 C2.99877877,3.73153171 3.12897876,3.60154172 3.28941875,3.60154172 C3.44985874,3.60154172 3.57984873,3.73153171 3.57984873,3.8919717" id="Fill-48" fill="#FCB618"></path>
                    <path d="M8.90994232,13.024703 C8.90994232,13.426013 8.58465234,13.7513029 8.18334237,13.7513029 C7.7818224,13.7513029 7.45653243,13.426013 7.45653243,13.024703 C7.45653243,12.623393 7.7818224,12.2978931 8.18334237,12.2978931 C8.58465234,12.2978931 8.90994232,12.623393 8.90994232,13.024703" id="Fill-50" fill="#000000"></path>
                    <path d="M6.86529847,9.94872824 C6.86529847,10.3500382 6.5400085,10.6755382 6.13848853,10.6755382 C5.73717856,10.6755382 5.41188859,10.3500382 5.41188859,9.94872824 C5.41188859,9.54741827 5.73717856,9.22212829 6.13848853,9.22212829 C6.5400085,9.22212829 6.86529847,9.54741827 6.86529847,9.94872824" id="Fill-52" fill="#000000"></path>
                    <path d="M8.88266332,6.94045747 C8.88266332,7.34176744 8.55737334,7.66705741 8.15606337,7.66705741 C7.75454341,7.66705741 7.42925343,7.34176744 7.42925343,6.94045747 C7.42925343,6.5391475 7.75454341,6.21385752 8.15606337,6.21385752 C8.55737334,6.21385752 8.88266332,6.5391475 8.88266332,6.94045747" id="Fill-54" fill="#000000"></path>
                    <path d="M10.9000072,3.8631387 C10.9000072,4.26444867 10.5747172,4.58973865 10.1734072,4.58973865 C9.77188725,4.58973865 9.44659728,4.26444867 9.44659728,3.8631387 C9.44659728,3.46182873 9.77188725,3.13653876 10.1734072,3.13653876 C10.5747172,3.13653876 10.9000072,3.46182873 10.9000072,3.8631387" id="Fill-56" fill="#000000"></path>
                    <path d="M12.808361,0.891575932 C12.808361,1.2928859 12.483071,1.61838588 12.0815511,1.61838588 C11.6802411,1.61838588 11.3549511,1.2928859 11.3549511,0.891575932 C11.3549511,0.490265962 11.6802411,0.164975987 12.0815511,0.164975987 C12.483071,0.164975987 12.808361,0.490265962 12.808361,0.891575932" id="Fill-58" fill="#000000"></path>
                    <path d="M11.0008072,9.94872824 C11.0008072,10.4342482 10.6072672,10.8275782 10.1219572,10.8275782 C9.63664726,10.8275782 9.24310729,10.4342482 9.24310729,9.94872824 C9.24310729,9.46341827 9.63664726,9.0698783 10.1219572,9.0698783 C10.6072672,9.0698783 11.0008072,9.46341827 11.0008072,9.94872824" id="Fill-60" fill="#000000"></path>
                    <path d="M12.961262,6.94045747 C12.961262,7.42576743 12.567722,7.8193074 12.0824121,7.8193074 C11.5971021,7.8193074 11.2035621,7.42576743 11.2035621,6.94045747 C11.2035621,6.45514751 11.5971021,6.06160754 12.0824121,6.06160754 C12.567722,6.06160754 12.961262,6.45514751 12.961262,6.94045747" id="Fill-62" fill="#000000"></path>
                    <g id="Group-66" transform="translate(15.119999, 17.894897)">
                        <mask id="mask-4" fill="white">
                            <use xlink:href="#path-3"></use>
                        </mask>
                        <g id="Clip-65"></g>
                        <path d="M1.79598286,1.01123392 C1.79598286,1.49654389 1.40244289,1.89008386 0.91713293,1.89008386 C0.431822967,1.89008386 0.0382829971,1.49654389 0.0382829971,1.01123392 C0.0382829971,0.52571396 0.431822967,0.13217399 0.91713293,0.13217399 C1.40244289,0.13217399 1.79598286,0.52571396 1.79598286,1.01123392" id="Fill-64" fill="#000000" mask="url(#mask-4)"></path>
                    </g>
                    <mask id="mask-6" fill="white">
                        <use xlink:href="#path-5"></use>
                    </mask>
                    <g id="Clip-68"></g>
                    <polygon id="Fill-67" fill="#000000" mask="url(#mask-6)" points="10.5682492 10.1773972 23.5720782 10.1773972 23.5720782 9.63853726 10.5682492 9.63853726"></polygon>
                    <polygon id="Fill-69" fill="#000000" mask="url(#mask-6)" points="12.732509 7.20988745 16.8220487 7.20988745 16.8220487 6.67102749 12.732509 6.67102749"></polygon>
                    <polygon id="Fill-70" fill="#000000" mask="url(#mask-6)" points="18.5780266 10.1471572 16.3278767 6.67102749 16.9559867 6.67102749 19.2063465 10.1471572"></polygon>
                    <polygon id="Fill-71" fill="#000000" mask="url(#mask-6)" points="16.7227187 13.294217 18.8088586 13.294217 18.8088586 12.755357 16.7227187 12.755357"></polygon>
                    <polygon id="Fill-72" fill="#000000" mask="url(#mask-6)" points="18.3122506 13.294175 20.1787305 10.1469052 20.7175904 10.1469052 18.8511106 13.294175"></polygon>
                </g>
            </g>
        </g>
    </g>
</svg>