<?xml version="1.0" encoding="UTF-8"?>
<svg width="39px" height="42px" viewBox="0 0 39 42" version="1.1" xmlns="http://www.w3.org/2000/svg" xmlns:xlink="http://www.w3.org/1999/xlink">
    <!-- Generator: Sketch 63.1 (92452) - https://sketch.com -->
    <title>Icons</title>
    <desc>Created with Sketch.</desc>
    <g id="Landing" stroke="none" stroke-width="1" fill="none" fill-rule="evenodd">
        <g id="Detalle-fincomercio" transform="translate(-613.000000, -1406.000000)" fill="#008776">
            <g id="btn-+-icon-+-txt-copy-5" transform="translate(587.000000, 1361.000000)">
                <g id="Icons-info" transform="translate(26.000000, 40.015464)">
                    <g id="Capa_1" transform="translate(0.000000, 5.000000)">
                        <g id="puntos_50_" transform="translate(10.000000, 40.000000)" fill-rule="nonzero">
                            <circle id="Oval" cx="11" cy="1" r="1"></circle>
                            <circle id="Oval" cx="16" cy="1" r="1"></circle>
                            <circle id="Oval" cx="21" cy="1" r="1"></circle>
                            <circle id="Oval" cx="1" cy="1" r="1"></circle>
                            <circle id="Oval" cx="6" cy="1" r="1"></circle>
                        </g>
                        <path d="M28.00048,31 C26.1303573,31 24.3735171,30.2712934 23.0525269,28.9492525 C21.7286567,27.6272116 21,25.8683308 21,23.9980798 C21,22.1287889 21.7296167,20.3708682 23.0525269,19.0488273 C24.3735171,17.7277465 26.1303573,17 28.00048,17 C29.8696427,17 31.6264829,17.7277465 32.9484331,19.0497874 C34.2713433,20.3708682 35,22.1287889 35,23.9990399 C35,25.8692909 34.2713433,27.6272116 32.9484331,28.9492525 C31.6264829,30.2722535 29.8696427,31 28.00048,31 Z M28.0004725,19 C26.6653123,19 25.4104696,19.5197505 24.4665029,20.4638065 C23.5206463,21.4078624 23,22.6637687 23,23.999055 C23,25.3343413 23.5206463,26.5902476 24.4665029,27.5343035 C25.4104696,28.4793045 26.6653123,29 28.0004725,29 C29.3356326,29 30.5904753,28.4793045 31.534442,27.5352485 C32.4793537,26.5902476 33,25.3352863 33,23.999055 C33,22.6637687 32.4793537,21.4078624 31.534442,20.4638065 C30.5904753,19.5197505 29.3356326,19 28.0004725,19 Z" id="Shape" fill-rule="nonzero"></path>
                        <path d="M37.7655331,34 C37.4495014,34 37.1334697,33.880349 36.8920992,33.637979 L31.3620557,28.1084657 C30.8793148,27.625771 30.8793148,26.8454827 31.3620557,26.362788 C31.843774,25.8790707 32.6261826,25.8790707 33.1079008,26.362788 L38.6379443,31.8923013 C39.1206852,32.374996 39.1206852,33.1552843 38.6379443,33.637979 C38.3975965,33.880349 38.0805421,34 37.7655331,34 Z" id="Path" fill-rule="nonzero"></path>
                        <path d="M24,12.9993546 C23.703,12.9993546 23.415,12.8700663 23.222,12.6349966 L21.5,10.5438557 L19.778,12.6349966 C19.512,12.9591969 19.068,13.0826085 18.667,12.9435256 C18.268,12.8054221 18,12.4351873 18,12.0198975 L18,0.979457099 C18,0.437817323 18.447,0 19,0 L24,0 C24.553,0 25,0.437817323 25,0.979457099 L25,12.0198975 C25,12.4351873 24.732,12.8054221 24.333,12.9435256 C24.224,12.9817244 24.111,12.9993546 24,12.9993546 Z M21.5,7.80776986 C21.803,7.80776986 22.089,7.93668504 22.278,8.15781691 L23,9 L23,2 L20,2 L20,9 L20.722,8.15687592 C20.911,7.93668504 21.197,7.80776986 21.5,7.80776986 Z" id="Shape" fill-rule="nonzero"></path>
                        <path d="M29.0357143,34 L3.96428571,34 C3.43103571,34 3,33.5724348 3,33.0434783 L3,12.9565217 C3,12.4275652 3.43103571,12 3.96428571,12 C4.49753571,12 4.92857143,12.4275652 4.92857143,12.9565217 L4.92857143,32.0869565 L29.0357143,32.0869565 C29.5689643,32.0869565 30,32.5145217 30,33.0434783 C30,33.5724348 29.5689643,34 29.0357143,34 Z" id="Path" fill-rule="nonzero"></path>
                        <path d="M29.0357143,15 C28.5024643,15 28.0714286,14.5809375 28.0714286,14.0625 L28.0714286,1.875 L4.92857143,1.875 L4.92857143,6.5625 C4.92857143,7.0809375 4.49753571,7.5 3.96428571,7.5 C3.43103571,7.5 3,7.0809375 3,6.5625 L3,0.9375 C3,0.4190625 3.43103571,0 3.96428571,0 L29.0357143,0 C29.5689643,0 30,0.4190625 30,0.9375 L30,14.0625 C30,14.5809375 29.5689643,15 29.0357143,15 Z" id="Path" fill-rule="nonzero"></path>
                        <path d="M10,34 C9.447,34 9,33.5661471 9,33.0294118 L9,1.97058824 C9,1.43385294 9.447,1 10,1 C10.553,1 11,1.43385294 11,1.97058824 L11,33.0294118 C11,33.5661471 10.553,34 10,34 Z" id="Path" fill-rule="nonzero"></path>
                        <path d="M7,8 L1,8 C0.447,8 0,7.553 0,7 C0,6.447 0.447,6 1,6 L7,6 C7.553,6 8,6.447 8,7 C8,7.553 7.553,8 7,8 Z" id="Path" fill-rule="nonzero"></path>
                        <path d="M7,14 L1,14 C0.447,14 0,13.553 0,13 C0,12.447 0.447,12 1,12 L7,12 C7.553,12 8,12.447 8,13 C8,13.553 7.553,14 7,14 Z" id="Path" fill-rule="nonzero"></path>
                    </g>
                </g>
            </g>
        </g>
    </g>
</svg>