<?xml version="1.0" encoding="UTF-8"?>
<svg width="38px" height="42px" viewBox="0 0 38 42" version="1.1" xmlns="http://www.w3.org/2000/svg" xmlns:xlink="http://www.w3.org/1999/xlink">
    <!-- Generator: Sketch 63.1 (92452) - https://sketch.com -->
    <title>Icons</title>
    <desc>Created with Sketch.</desc>
    <g id="Landing" stroke="none" stroke-width="1" fill="none" fill-rule="evenodd">
        <g id="Detalle-fincomercio" transform="translate(-966.000000, -1406.000000)" fill="#008776">
            <g id="Icons-no-aprobado" transform="translate(966.000000, 1401.015464)">
                <g id="Capa_1" transform="translate(0.000000, 5.000000)">
                    <g id="puntos_23_" transform="translate(10.000000, 40.000000)" fill-rule="nonzero">
                        <circle id="Oval" cx="11" cy="1" r="1"></circle>
                        <circle id="Oval" cx="16" cy="1" r="1"></circle>
                        <circle id="Oval" cx="21" cy="1" r="1"></circle>
                        <circle id="Oval" cx="1" cy="1" r="1"></circle>
                        <circle id="Oval" cx="6" cy="1" r="1"></circle>
                    </g>
                    <g id="puntos_5_" transform="translate(10.000000, 40.000000)" fill-rule="nonzero">
                        <circle id="Oval" cx="11" cy="1" r="1"></circle>
                        <circle id="Oval" cx="16" cy="1" r="1"></circle>
                        <circle id="Oval" cx="21" cy="1" r="1"></circle>
                        <circle id="Oval" cx="1" cy="1" r="1"></circle>
                        <circle id="Oval" cx="6" cy="1" r="1"></circle>
                    </g>
                    <path d="M33.8894878,24 C33.780089,24 33.6690072,23.9788624 33.562133,23.9332051 C33.1337947,23.7514213 32.9335108,23.255955 33.1144395,22.8255926 C35.5018574,17.1454857 34.2681758,10.6334011 29.970487,6.23338972 C25.623148,1.78433897 18.8724021,0.447594533 13.1735674,2.9105525 C12.7443876,3.09149071 12.2512516,2.8953334 12.0686398,2.46750754 C11.8851865,2.03883617 12.0821043,1.54167885 12.5087595,1.35735862 C18.8412655,-1.37869768 26.3418138,0.10601025 31.1721905,5.0496818 C35.9470263,9.93754998 37.3178771,17.1733874 34.6653775,23.483396 C34.5298914,23.8063792 34.2185256,24 33.8894878,24 Z" id="Path" fill-rule="nonzero"></path>
                    <path d="M18.8344808,34 C14.4258608,34 10.0888502,32.2450286 6.82598274,28.8970963 C1.80152066,23.7441476 0.566466769,15.9371122 3.75351239,9.47111573 C3.96075881,9.05294228 4.46623789,8.87990499 4.88241567,9.0885676 C5.29943591,9.296382 5.46961387,9.80616343 5.26320991,10.2251851 C2.39461612,16.0448364 3.5066701,23.0723558 8.0281805,27.7095855 C12.7072319,32.5071293 19.8378568,33.6700416 25.7730237,30.6045673 C26.1875165,30.3891189 26.6938381,30.5553704 26.9069818,30.9718474 C27.119283,31.3891726 26.9558448,31.9006505 26.5421944,32.1144025 C24.0880934,33.3833426 21.4486501,34 18.8344808,34 Z" id="Path" fill-rule="nonzero"></path>
                    <path d="M6.20595764,14 C5.91596592,14 5.63630266,13.836751 5.49647103,13.5526979 L4.14185215,10.8060343 L1.03774892,11.8287889 C0.618254041,11.9634693 0.17254073,11.7300233 0.0382705878,11.3014948 C-0.0959995542,10.8721501 0.134404831,10.4126043 0.551516219,10.2746589 L4.30075172,9.03886434 C4.67257673,8.91724387 5.07538716,9.08865527 5.25256019,9.44698672 L6.91385526,12.8148126 C7.11247973,13.2172213 6.95596364,13.7086006 6.56427619,13.9118456 C6.449074,13.9722477 6.32672132,14 6.20595764,14 Z" id="Path" fill-rule="nonzero"></path>
                    <path d="M33.4561319,24 C33.1637567,24 32.8856824,23.8335447 32.7474398,23.5528554 L31.0861447,20.1862154 C30.8875203,19.7839485 31.0440364,19.2927422 31.4357238,19.0895688 C31.8290003,18.8831316 32.305699,19.046323 32.503529,19.447774 L33.8581479,22.1934705 L36.9622511,21.1710759 C37.3809515,21.0331791 37.8274593,21.2698068 37.9617294,21.6981844 C38.0959996,22.1273779 37.8655952,22.5867619 37.4484838,22.7246587 L33.6992483,23.9600181 C33.619004,23.9869447 33.5371707,24 33.4561319,24 Z" id="Path" fill-rule="nonzero"></path>
                    <path d="M28.1428571,27 L11.8571429,27 C11.384,27 11,26.6217692 11,26.1538462 L11,5.84615385 C11,5.37823077 11.384,5 11.8571429,5 L23.8571429,5 C24.3302857,5 24.7142857,5.37823077 24.7142857,5.84615385 L24.7142857,9.23076923 L28.1428571,9.23076923 C28.616,9.23076923 29,9.609 29,10.0769231 L29,26.1538462 C29,26.6217692 28.616,27 28.1428571,27 Z M12.7142857,25.3076923 L27.2857143,25.3076923 L27.2857143,10.9230769 L23.8571429,10.9230769 C23.384,10.9230769 23,10.5448462 23,10.0769231 L23,6.69230769 L12.7142857,6.69230769 L12.7142857,25.3076923 Z" id="Shape" fill-rule="nonzero"></path>
                    <path d="M27.5003073,11 C27.3624613,11 27.2253854,10.9386861 27.1268139,10.8168982 L23.1261993,5.9084248 C22.942918,5.6824872 22.9614002,5.33812134 23.1677842,5.13822116 C23.373398,4.93832098 23.6891347,4.95679915 23.8739562,5.18357667 L27.8738007,10.09205 C28.057082,10.3179876 28.0385998,10.6623535 27.8322158,10.8622537 C27.7367248,10.9546445 27.618131,11 27.5003073,11 Z" id="Path" fill-rule="nonzero"></path>
                </g>
            </g>
        </g>
    </g>
</svg>